<?xml version="1.0" standalone="no"?>
<!DOCTYPE svg PUBLIC "-//W3C//DTD SVG 20010904//EN"
 "http://www.w3.org/TR/2001/REC-SVG-20010904/DTD/svg10.dtd">
<svg version="1.0" xmlns="http://www.w3.org/2000/svg"
 width="150" height="150" viewBox="0 0 150.000000 150.000000"
 preserveAspectRatio="xMidYMid meet">
<metadata>
Created by potrace 1.10, written by Peter Selinger 2001-2011
</metadata>
<g transform="translate(0.000000,150.000000) scale(0.100000,-0.100000)"
fill="#949494" stroke="none">
<path d="M624 1476 c-115 -28 -211 -115 -243 -220 l-18 -60 -32 61 c-36 73
-39 98 -11 113 11 6 20 17 20 25 0 13 -27 15 -165 15 -140 0 -165 -2 -165 -15
0 -8 4 -15 10 -15 5 0 19 -9 30 -20 20 -20 20 -33 20 -590 0 -557 0 -570 -20
-590 -11 -11 -24 -20 -30 -20 -5 0 -10 -7 -10 -15 0 -13 21 -15 125 -15 135 0
148 6 98 46 l-28 22 -3 429 c-2 235 0 457 4 493 l6 65 265 -529 265 -529 266
526 267 526 7 -467 c4 -257 5 -480 2 -495 -3 -15 -17 -35 -30 -43 -13 -9 -24
-23 -24 -30 0 -11 26 -14 130 -14 141 0 153 6 103 46 l-28 22 0 572 0 572 28
22 c52 42 39 46 -138 46 -138 0 -165 -2 -165 -15 0 -8 9 -19 20 -25 29 -15 25
-54 -14 -130 l-33 -64 -7 34 c-35 177 -179 282 -381 279 -38 0 -93 -6 -121
-13z m259 -72 c49 -17 118 -78 144 -127 24 -48 29 -158 9 -210 -47 -124 -199
-195 -356 -167 -105 19 -172 66 -216 150 -26 49 -26 171 0 220 41 79 117 134
205 150 59 11 156 4 214 -16z m-16 -750 l-114 -229 -112 223 c-61 122 -111
224 -111 227 0 3 12 -1 28 -8 90 -46 268 -48 363 -5 30 14 55 24 57 23 2 -2
-48 -106 -111 -231z"/>
<path d="M450 86 l0 -74 65 -4 c41 -2 65 1 65 7 0 6 -22 11 -52 10 l-53 0 0
68 c0 47 -4 67 -12 67 -9 0 -13 -22 -13 -74z"/>
<path d="M600 85 c0 -53 4 -75 13 -75 8 0 12 22 12 75 0 53 -4 75 -12 75 -9 0
-13 -22 -13 -75z"/>
<path d="M665 85 c0 -53 4 -75 13 -75 8 0 12 18 12 57 l0 56 25 -23 c13 -13
35 -38 47 -56 39 -57 53 -46 53 41 0 53 -4 75 -12 75 -9 0 -13 -18 -13 -57 l0
-58 -44 50 c-24 28 -42 53 -39 58 2 4 -6 7 -19 7 -22 0 -23 -3 -23 -75z"/>
<path d="M855 86 l0 -75 63 -3 c41 -2 62 1 62 8 0 7 -10 9 -25 6 -45 -8 -75 6
-75 34 0 24 3 26 35 22 21 -2 35 0 35 7 0 7 -14 9 -35 7 -32 -4 -35 -2 -35 23
0 26 1 27 50 23 35 -2 50 1 50 10 0 8 -19 12 -62 12 l-63 0 0 -74z"/>
<path d="M1029 141 c-35 -29 -16 -54 50 -65 58 -11 66 -33 18 -51 -22 -7 -35
-6 -57 7 -23 13 -29 14 -34 3 -3 -10 8 -16 39 -21 58 -8 92 1 100 27 10 29
-12 49 -54 49 -44 0 -66 13 -58 34 7 19 82 23 93 5 4 -8 9 -7 15 2 18 30 -78
38 -112 10z"/>
</g>
</svg>
