<svg width="220" height="137" viewBox="0 0 220 137" fill="none" xmlns="http://www.w3.org/2000/svg">
<path fill-rule="evenodd" clip-rule="evenodd" d="M220 136.915H0.00012207C8.48928 99.1044 54.5061 70.2128 110 70.2128C165.494 70.2128 211.511 99.1044 220 136.915Z" fill="#1D1D1B"/>
<path d="M101.02 39.1535L110.988 37.9122L110.811 24.8526L101.106 28.1761L101.02 39.1535Z" fill="#1D1D1B"/>
<path d="M155.177 43.2983C154.927 43.305 154.692 43.192 154.487 42.9935C154.389 42.8985 154.298 42.7858 154.216 42.6546V42.6544C154.12 42.4985 154.037 42.3189 153.97 42.1216C153.941 42.036 153.916 41.9463 153.893 41.8545C153.84 41.6382 153.805 41.4061 153.793 41.1632C153.792 41.1323 153.789 41.1023 153.788 41.0712V41.0692C153.776 40.6006 153.848 40.1631 153.981 39.798C154.034 39.654 154.097 39.523 154.168 39.4041C154.19 39.3669 154.212 39.3299 154.236 39.2954C154.275 39.2386 154.317 39.1869 154.36 39.1383C154.558 38.9143 154.796 38.7794 155.054 38.7723C155.788 38.7525 156.41 39.7497 156.443 40.9994C156.477 42.2494 155.91 43.2786 155.177 43.2983ZM154.202 43.4648L154.183 44.5241L154.177 44.879L154.163 44.8788L142.562 44.6235L141.608 42.131C141.822 42.0962 142.067 42.0466 142.116 41.9951C142.205 41.9006 142.657 41.5662 142.677 40.5984C142.697 39.6306 141.325 39.1612 141.325 39.1612L141.384 39.6199C141.384 39.6199 141.905 40.1586 141.886 40.3204C141.868 40.482 141.901 40.8726 141.744 41.0152C141.586 41.1575 141.173 41.1915 141.144 40.9622C141.114 40.7328 140.871 40.2326 140.871 40.2326L140.283 39.8111L140.195 39.0995L137.89 39.0236L137.98 42.3604L139.976 42.3268L140.689 44.5823L135.735 44.4733L132.111 44.3934L126.23 44.2639L120.698 44.1423L120.641 44.0767L120.64 44.0503L120.638 43.9719L120.483 38.2501L120.464 37.5331L122.344 37.6375L125.865 37.8328C125.792 37.9194 125.723 38.0128 125.658 38.1103C125.269 38.6933 125.041 39.4623 125.064 40.3027C125.101 41.6981 125.816 42.8638 126.779 43.2803C127.04 43.393 127.318 43.4542 127.607 43.4463C128.384 43.4254 129.062 42.9343 129.493 42.1865L129.513 42.186L129.512 42.1569C129.668 42.2528 129.836 42.3051 130.012 42.3004C130.35 42.2913 130.652 42.0755 130.876 41.7304C131.323 42.6129 132.08 43.1876 132.924 43.1647C133.481 43.1496 133.986 42.8763 134.38 42.4336C134.916 41.8306 135.247 40.9126 135.219 39.8903C135.204 39.3213 135.079 38.7912 134.874 38.333L141.982 38.7276L141.983 38.7279L142.766 38.7996L142.769 38.7715L142.138 38.7362L142.769 38.7713V38.7715L148.225 39.0744C147.825 39.5896 147.585 40.3123 147.607 41.1084C147.648 42.6344 148.628 43.8456 149.796 43.8143C150.473 43.7961 151.063 43.3622 151.432 42.7052C151.137 43.047 150.75 43.2591 150.321 43.2707C149.806 43.2845 149.337 43.0051 149.004 42.5513L151.5 42.5791L151.532 42.5794L151.903 42.5838C152.091 42.7747 152.313 42.8835 152.549 42.8773C152.913 42.8675 153.23 42.5865 153.432 42.1554C153.595 42.6985 153.864 43.1437 154.194 43.418L154.203 43.4246L154.202 43.4648ZM148.15 49.265C148.2 51.1235 146.958 52.6645 145.376 52.7071C143.794 52.75 142.47 51.2781 142.42 49.4199C142.37 47.5615 143.612 46.0205 145.194 45.9778C146.776 45.9352 148.1 47.4069 148.15 49.265ZM140.981 44.5885L140.241 42.2499L140.269 41.8377L140.798 41.8005L141.269 42.1793L142.264 44.6169L140.981 44.5885ZM133.135 53.5215L132.561 54.0207L132.467 53.0907L132.413 52.3668L133.346 52.3761L133.498 52.8901L133.135 53.5215ZM131.407 54.7774L130.819 54.7242L130.454 54.0084L130.679 53.3807L131.368 53.3277L131.639 54.3912L131.407 54.7774ZM129.478 53.6895L128.684 52.4329L129.443 52.3779L129.628 52.8564L129.478 53.6895ZM121.482 53.0658C121.269 53.0714 121.06 53.0512 120.857 53.011C119.892 52.8191 119.064 52.1315 118.576 51.1743L118.552 51.1286C118.287 50.5932 118.129 49.9761 118.111 49.3163C118.101 48.9688 118.135 48.6324 118.2 48.3103C118.274 47.9445 118.392 47.5997 118.549 47.2833C118.607 47.1669 118.669 47.0542 118.736 46.9461C118.983 46.551 119.293 46.2144 119.65 45.9561C119.955 45.7354 120.293 45.5709 120.655 45.4786C120.855 45.4276 121.062 45.3963 121.275 45.3903C121.462 45.3854 121.645 45.4032 121.825 45.434C123.228 45.6742 124.356 46.959 124.596 48.6082C124.622 48.7821 124.641 48.9587 124.646 49.14C124.703 51.2594 123.287 53.0169 121.482 53.0658ZM117.359 48.2925L117.086 48.2864L116.325 48.2696L114.387 48.2274L113.925 48.2173L112.377 48.1838L112.375 48.1835L112.394 48.1221L112.412 48.0612C112.427 48.0114 112.441 47.9613 112.458 47.9127C112.468 47.8829 112.481 47.852 112.492 47.8219C112.503 47.7921 112.516 47.7618 112.528 47.7314C112.543 47.6927 112.557 47.6528 112.573 47.6148C112.607 47.5363 112.646 47.4562 112.685 47.376C112.746 47.2515 112.812 47.1257 112.886 46.9972L112.921 46.9969L112.947 46.9964L113.49 46.9918L114.405 46.9839L116.129 46.9691L116.911 46.9622L117.86 46.954C117.626 47.3573 117.456 47.8091 117.359 48.2925ZM116.285 53.4362C115.587 55.0048 114.5 56.021 113.254 56.0548C111.612 56.0992 110.154 54.425 109.459 51.9869L109.732 51.9482L111.637 51.6796L110.508 53.6042C110.682 53.8703 110.871 54.1078 111.071 54.3133L112.126 51.6106L112.359 51.5778L112.265 55.087C112.489 55.157 112.719 55.1915 112.954 55.1854C113.057 55.1827 113.16 55.1703 113.261 55.1523L112.841 51.7134L112.86 51.7152C112.887 51.7147 112.912 51.709 112.939 51.7038C113.063 51.8533 113.198 51.9919 113.344 52.1159L114.673 54.3362C114.88 54.1194 115.072 53.8658 115.247 53.58L114.6 52.7653C114.847 52.8263 115.103 52.8591 115.367 52.8517L115.622 52.8598L115.849 52.8667L116.504 52.8874C116.436 53.0768 116.363 53.2603 116.285 53.4362ZM109.043 48.2178C109.089 47.2682 109.243 46.3757 109.487 45.5785C110.13 43.4757 111.389 42.0395 112.874 41.9995C114.241 41.9623 115.481 43.1178 116.259 44.9123C116.354 45.1323 116.443 45.3612 116.524 45.599L116.539 45.6463L115.678 45.6619L115.173 45.6708C115.145 45.6713 115.117 45.6762 115.089 45.6774C114.292 45.7223 113.579 46.0908 113.044 46.6674C112.97 46.6183 112.894 46.5873 112.815 46.5744L112.859 45.5884L112.978 42.9054C112.86 42.8879 112.741 42.8805 112.622 42.8837C112.418 42.8892 112.22 42.9264 112.027 42.9893L112.249 45.5864L112.347 46.7335C112.242 46.8273 112.146 46.9577 112.062 47.1193L111.487 45.5842L110.824 43.815C110.628 44.0336 110.445 44.2866 110.279 44.5688L110.809 45.5822L111.868 47.6081C111.841 47.6999 111.816 47.7953 111.794 47.8962L109.655 46.0247C109.581 46.2661 109.516 46.5172 109.462 46.7772L111.748 48.1428C111.741 48.1889 111.735 48.2365 111.729 48.2841L109.274 48.2235L109.043 48.2178ZM123.826 32.1372C123.356 32.1026 122.808 32.09 122.22 32.1058C121.2 32.1335 120.299 32.2398 119.734 32.3808C119.441 32.4543 119.24 32.5367 119.161 32.623C119.135 32.6509 119.118 32.6793 119.119 32.7079L119.108 32.316C119.107 32.2849 119.126 32.2538 119.157 32.2235C119.24 32.1418 119.431 32.0639 119.705 31.9941C120.268 31.8503 121.178 31.742 122.209 31.7142C122.844 31.6969 123.435 31.7127 123.929 31.7536C124.774 31.8237 125.334 31.9672 125.339 32.1478L125.349 32.5394C125.344 32.3512 124.733 32.2033 123.826 32.1372ZM123.619 32.9059C123.202 32.883 122.736 32.8761 122.241 32.8894C121.243 32.9163 120.36 33.0184 119.793 33.155C119.461 33.235 119.24 33.3267 119.168 33.4224L119.14 33.4912L119.129 33.0993C119.129 33.0736 119.143 33.048 119.164 33.0226C119.24 32.9316 119.452 32.8448 119.764 32.7681C120.33 32.629 121.222 32.5249 122.23 32.4975C122.77 32.4832 123.279 32.4926 123.723 32.5207C124.693 32.5823 125.354 32.7353 125.36 32.9313L125.37 33.3232C125.365 33.1195 124.65 32.9629 123.619 32.9062V32.9059ZM125.402 34.4987L125.413 34.8904C125.406 34.6573 124.476 34.4857 123.201 34.4548C122.911 34.4479 122.603 34.4482 122.283 34.4566C121.329 34.4825 120.478 34.5769 119.91 34.7047C119.459 34.806 119.187 34.9281 119.183 35.0542L119.182 35.0586L119.172 34.6669L119.18 34.6378C119.214 34.5222 119.469 34.4107 119.881 34.3167C120.449 34.1872 121.309 34.0908 122.273 34.0646C122.635 34.0553 122.982 34.0563 123.306 34.0666C124.52 34.1048 125.396 34.2726 125.402 34.4985V34.4987ZM123.41 33.6787C123.054 33.6648 122.668 33.6619 122.262 33.673C121.287 33.6994 120.419 33.7973 119.851 33.9295C119.48 34.0158 119.236 34.1167 119.176 34.2218L119.161 34.2748L119.15 33.8829L119.172 33.822C119.238 33.7218 119.471 33.6254 119.822 33.5425C120.39 33.4081 121.265 33.308 122.252 33.2813C122.701 33.2692 123.128 33.2739 123.515 33.2919C124.608 33.343 125.375 33.5035 125.381 33.7149L125.391 34.1066C125.385 33.8883 124.565 33.7235 123.41 33.6789V33.6787ZM122.05 25.7973C120.822 25.8303 119.767 25.9773 119.264 26.1623C119.201 26.1855 119.145 26.2092 119.101 26.2334C119.001 26.2869 118.947 26.3426 118.948 26.3991L118.938 26.0074C118.936 25.9497 118.994 25.893 119.097 25.8382C119.136 25.8178 119.183 25.7975 119.235 25.7776C119.73 25.5891 120.797 25.4389 122.039 25.4054C123.759 25.359 125.161 25.5531 125.168 25.839L125.179 26.2309C125.171 25.945 123.77 25.7509 122.05 25.7973ZM122.071 26.5809C120.874 26.6132 119.84 26.7535 119.322 26.9321C119.236 26.9617 119.163 26.9923 119.108 27.0233C119.017 27.0751 118.968 27.1287 118.97 27.1824L118.959 26.7908C118.958 26.7355 119.009 26.681 119.104 26.6285C119.155 26.6006 119.219 26.5732 119.293 26.5473C119.804 26.3651 120.848 26.2218 122.06 26.1887C123.781 26.1423 125.182 26.3367 125.189 26.6223L125.2 27.0145C125.192 26.7284 123.791 26.534 122.071 26.5806V26.5809ZM125.232 28.1894L125.242 28.5814C125.24 28.4906 125.096 28.4095 124.848 28.3419C124.313 28.1966 123.288 28.1159 122.113 28.1478C120.97 28.1786 119.977 28.3081 119.439 28.4753C119.302 28.5177 119.195 28.5624 119.123 28.609C119.051 28.6549 119.011 28.7017 119.012 28.7498L119.001 28.3579C119 28.3086 119.043 28.2595 119.119 28.2126C119.188 28.17 119.286 28.1285 119.41 28.0891C119.943 27.9191 120.947 27.7872 122.102 27.7561C123.363 27.7221 124.449 27.8173 124.945 27.9833C125.126 28.0437 125.23 28.1135 125.232 28.1897V28.1894ZM125.04 27.6318C124.609 27.4416 123.452 27.3277 122.092 27.3644C120.923 27.3958 119.909 27.5304 119.381 27.7031C119.27 27.7393 119.181 27.7771 119.115 27.816C119.034 27.8649 118.989 27.9152 118.991 27.9662L118.98 27.5743C118.979 27.5218 119.025 27.4698 119.112 27.4197C119.172 27.3844 119.253 27.3499 119.351 27.3168C119.875 27.1415 120.9 27.0043 122.081 26.9725C123.567 26.9323 124.813 27.0719 125.13 27.2949C125.18 27.3299 125.209 27.3672 125.211 27.4061L125.221 27.798C125.219 27.7381 125.154 27.6824 125.04 27.6318ZM91.6585 31.4054L86.8337 33.0574L86.8535 31.9756L92.2132 29.8807L99.6854 27.2377L106.877 24.6381L110.412 23.4066C110.419 23.4044 111.157 23.1911 112.003 23.2108C112.328 23.2192 112.687 23.2322 113.011 23.2458L116.463 23.5581L118.625 23.7924L118.647 24.6085C118.644 24.5076 118.804 24.4087 119.083 24.3192L119.124 24.3071C119.709 24.1285 120.775 23.9904 122 23.9576C122.625 23.9406 123.208 23.9534 123.711 23.9894C124.706 24.0602 125.378 24.221 125.383 24.4262L125.384 24.4571L125.409 25.3728C125.401 25.0635 123.886 24.8536 122.026 24.904C120.832 24.936 119.788 25.0677 119.194 25.2396C119.159 25.2502 119.124 25.2604 119.091 25.2707C118.823 25.3588 118.669 25.4557 118.672 25.5546L118.777 29.4471C118.883 29.4162 119.001 29.3871 119.13 29.3588C119.245 29.3334 119.369 29.3094 119.5 29.2865C120.202 29.1639 121.123 29.0756 122.137 29.0485C123.082 29.0228 123.95 29.0544 124.637 29.1269C125.554 29.2241 126.145 29.3945 126.151 29.6044L126.189 31.0034C126.182 30.7644 125.414 30.5759 124.27 30.4899C123.659 30.4437 122.943 30.4267 122.175 30.4474C121.194 30.4738 120.298 30.5569 119.605 30.6734C119.438 30.7012 119.284 30.7316 119.143 30.7626C119.023 30.7895 118.914 30.8174 118.815 30.8462L118.951 35.8935C118.949 35.82 119.035 35.7472 119.189 35.6789C119.365 35.6002 119.632 35.5275 119.967 35.4641C120.571 35.3499 121.394 35.2675 122.305 35.2426C122.54 35.2364 122.769 35.2342 122.991 35.2362C124.524 35.2475 125.681 35.4416 125.688 35.7117L125.714 36.6583C125.706 36.372 124.405 36.1712 122.736 36.1828C122.603 36.1838 122.468 36.1857 122.33 36.1894C121.442 36.2134 120.638 36.2928 120.038 36.4025C119.67 36.4699 119.381 36.5485 119.199 36.6334C119.055 36.6997 118.975 36.7693 118.977 36.8401L118.994 37.4826L118.68 37.5736L85.0639 41.8804L85.0752 41.8279L85.1613 41.0211L85.1724 40.9195L85.2533 38.354L85.2839 37.3815L85.4035 32.8532L85.5071 32.8504L85.5552 32.0772L85.4402 32.0804L85.6077 27.195C85.6077 27.195 85.6378 24.4763 85.7031 24.3362C85.7685 24.1964 85.9902 23.8868 86.1952 23.8027C86.4004 23.7186 86.4786 23.632 86.6325 23.7909C86.7864 23.95 86.7405 24.8033 86.7405 24.8033L86.5893 31.4532L86.3582 31.5423L86.5568 32.058L86.5758 32.0506L86.5518 33.1067L86.5042 35.197L86.373 40.972L91.5377 40.3288L91.6585 31.4054ZM91.767 40.3004L100.74 39.1829L100.826 28.2659L91.9281 31.3131L91.767 40.3004ZM105.315 48.1258L103.892 48.0908C103.844 47.8774 103.783 47.6838 103.712 47.5149L105.106 46.8581L105.746 46.5564C105.866 47.0522 105.957 47.5842 106.013 48.1433L105.315 48.1258ZM102.817 43.7016C102.742 43.7036 102.668 43.7156 102.595 43.7329L102.761 45.559L102.804 46.0313L102.262 46.3026L101.924 45.5566L101.511 44.6418C101.392 44.8285 101.284 45.0411 101.184 45.2739L101.367 45.5548L101.952 46.457L100.68 47.0931L100.486 47.1903C100.568 46.5986 100.692 46.0476 100.852 45.5536C101.332 44.0681 102.131 43.0946 103.06 43.0695C103.861 43.0477 104.602 43.7354 105.15 44.8581L104.525 45.1706L104.511 45.1434L104.482 45.1925L103.743 45.562L103.23 45.8182L103.243 45.5603L103.331 43.8123C103.164 43.7366 102.992 43.6967 102.817 43.7016ZM106.026 50.5663C105.788 53.2187 104.722 55.2073 103.389 55.2433C101.986 55.2811 100.762 53.1437 100.449 50.2957C100.433 50.1416 100.418 49.986 100.406 49.8279L100.578 49.8293L102.225 49.8466C102.266 50.0444 102.318 50.2272 102.38 50.3895C102.417 50.4847 102.457 50.5717 102.499 50.6519L101.252 52.825C101.364 53.0879 101.485 53.3269 101.616 53.5395L102.68 50.9247C102.748 51.0038 102.819 51.0633 102.894 51.1042L102.699 54.5518C102.834 54.5998 102.972 54.6289 103.112 54.625C103.245 54.6215 103.375 54.5873 103.502 54.5365L103.199 51.155C103.287 51.1358 103.371 51.0875 103.449 51.0149L104.565 53.4271C104.697 53.1804 104.816 52.9049 104.919 52.5984L103.638 50.775C103.692 50.683 103.741 50.5757 103.785 50.4575C103.85 50.2832 103.902 50.0834 103.938 49.8644L105.23 49.8779L105.373 49.945L106.05 50.2647C106.043 50.366 106.035 50.4667 106.026 50.5663ZM97.4341 45.6648L96.6206 47.1057C96.5225 46.9146 96.4085 46.7804 96.2865 46.7232L96.34 45.5403L96.4108 43.9712C96.2739 43.8848 96.1325 43.836 95.988 43.84C95.8987 43.8424 95.8124 43.8688 95.7273 43.9061L95.8684 45.5388L95.9732 46.7515C95.8575 46.8292 95.7545 46.9789 95.6708 47.1834L94.9741 45.5363L94.8194 45.1708C94.7775 45.2865 94.7378 45.4078 94.7003 45.5354C94.6687 45.6434 94.6389 45.7551 94.611 45.871L95.5774 47.4641C95.5497 47.5657 95.5263 47.6752 95.5066 47.7911L94.3641 47.5166L94.1506 47.4653C94.2048 46.7592 94.3136 46.1068 94.4677 45.5349C94.8394 44.1532 95.4688 43.2436 96.2075 43.2236C96.9657 43.2031 97.6602 44.1236 98.1052 45.5452C98.298 46.1623 98.4448 46.8721 98.5279 47.6439L97.8408 47.6967L96.8468 47.7731C96.818 47.6421 96.7849 47.5188 96.7469 47.4071L97.6343 46.4104C97.5756 46.1458 97.5081 45.8972 97.4341 45.6648ZM98.5612 50.2045C98.3671 52.585 97.5448 54.3572 96.5089 54.3853C95.4252 54.4146 94.4695 52.5278 94.191 49.9926C94.1658 49.7647 94.1486 49.5304 94.1348 49.2932L94.3553 49.3462L95.5542 49.6343C95.589 49.7916 95.6311 49.9356 95.6787 50.0646L95.6817 50.0723L94.7839 51.8545C94.8532 52.0814 94.9289 52.2918 95.0103 52.4847L95.7769 50.2918C95.8704 50.4746 95.9779 50.606 96.0933 50.6684L95.9584 53.7018C96.0558 53.7438 96.155 53.7699 96.2561 53.7672C96.4093 53.763 96.5553 53.6999 96.6944 53.5958L96.4105 50.6613C96.4971 50.609 96.5763 50.515 96.6465 50.3895L97.4595 52.3409C97.5628 52.04 97.6501 51.6991 97.7209 51.3277L96.8493 50.1214L96.7916 50.0415C96.8212 49.9467 96.8476 49.8439 96.8698 49.7344L97.9049 49.6547L98.5957 49.6017C98.5886 49.8064 98.5772 50.0074 98.5612 50.2045ZM79.8585 50.1557C79.915 49.8488 79.953 49.5203 79.9698 49.1745L84.6414 49.1861L84.653 49.615L85.4753 49.8002L86.0845 49.7608L86.947 49.5072L87.2163 49.2465L87.18 49.1923L87.3564 49.1928C87.3919 49.5615 87.4513 49.9105 87.5315 50.2306L79.8585 50.1557ZM76.8143 42.9799L76.9368 34.5527L80.1123 34.6304L79.992 42.9257L80.0443 43.0038L76.8143 42.9799ZM76.466 42.974L75.5483 43.081L75.7786 35.9554L75.7863 35.9529L75.8124 34.8092C75.9799 34.7444 76.3059 34.6228 76.5859 34.519L76.466 42.974ZM76.8313 49.5844L70.6971 49.617C70.7546 49.268 70.7827 48.8766 70.7736 48.4622L76.7499 48.4768C76.7504 48.5281 76.7491 48.5784 76.7506 48.6302C76.7595 48.9629 76.7891 49.2828 76.8335 49.5884L76.8313 49.5844ZM69.7305 37.6473L69.9007 31.5568L70.9941 30.8904L70.8113 37.2695L69.7305 37.6473ZM69.165 37.8454L68.2275 38.1732L68.3863 32.4795L69.3285 31.927L69.165 37.8454ZM71.6847 30.4694L71.8672 30.3584L73.0071 29.6994L72.8103 36.5703L71.5359 37.0159L71.6847 30.4694ZM73.7604 29.2638L75.1046 28.4869L74.9502 35.8219L73.6005 36.294L73.7604 29.2638ZM75.9675 27.9877L76.2564 27.821L78.6209 26.4329L79.4568 26.0395L81.9044 25.5472L81.7848 33.7287L80.2507 34.2763L76.704 34.1808L76.6791 34.1899C76.2413 34.3515 75.9794 34.4496 75.8193 34.5108L75.9675 27.9877ZM81.6504 42.9321L80.3493 42.9908L80.4685 34.5888L81.7791 34.1231L81.6504 42.9321ZM82.285 34.0479L84.3841 34.1793L84.3306 35.7608L84.246 38.1695L84.0618 42.0087L83.455 42.0309L83.4459 42.8832L82.1555 42.9183L82.285 34.0479ZM82.41 25.4895L84.6293 25.0761L84.6448 25.6542L84.3881 32.351L84.172 32.4492L84.1752 32.5641L84.2818 32.6763L84.2808 33.068L84.41 33.1563L84.39 33.8111L82.2941 33.6927L82.4152 25.62H82.408L82.41 25.4895ZM87.1741 23.3812C87.1741 23.3812 87.9732 22.9104 88.0265 22.9609C88.0795 23.0113 88.2657 22.8682 88.2643 23.4552C88.2628 24.0427 88.1252 29.815 88.1252 29.815L88.0847 30.8694L86.8631 31.325C86.8631 31.325 87.0353 25.2675 87.0185 24.6462C87.0017 24.0247 87.0767 23.6084 87.1741 23.3812ZM102.136 25.0076L101.331 25.3075L101.351 26.0481L99.4994 26.7175L96.5146 27.7734L96.5684 24.609L102.136 25.0076ZM89.0089 21.2655L89.1317 21.1849C93.4148 20.8754 95.9547 20.8445 96.9124 20.8327C97.0787 20.8307 97.1938 20.829 97.2575 20.827C97.602 20.8053 99.4225 20.9538 100.107 21.0058L100.395 21.0278C100.525 21.0369 101.457 21.1612 102.457 21.2971L102.411 24.5572L96.6927 24.097L96.1173 24.1125L90.0827 26.6245C90.0827 26.6245 90.1498 23.5598 90.1392 23.1686C90.1286 22.7774 90.1597 22.6499 89.8462 22.1288C89.5327 21.6076 88.9923 21.6338 88.9923 21.6338L89.0089 21.2655ZM102.984 19.7674L103.182 19.6772L103.394 19.7739C104.201 20.1433 104.77 20.405 104.955 20.4908L104.978 21.3642C104.684 21.3235 104.035 21.234 103.316 21.1356L102.963 20.5656L102.943 19.7975L102.908 19.7825C102.933 19.7768 102.96 19.7714 102.984 19.7674ZM107.041 22.1058L107.091 23.9786L106.693 24.1174L105.613 24.5076L104.774 24.4546L103.497 24.4889L103.504 24.7651L104.769 24.7303L104.962 24.7427L103.517 25.265L103.5 24.627L103.497 24.5007L103.414 21.4276C104.318 21.5514 105.076 21.6562 105.089 21.6579L107.041 22.1058ZM110.01 19.3381C110.003 19.0803 111.844 19.0307 111.851 19.2882L111.942 22.6583C111.042 22.6492 110.288 22.8672 110.243 22.8805L110.107 22.9281L110.01 19.3381ZM113.939 16.7691L114.012 16.6028L113.911 11.2515L113.895 10.4489L117.028 8.69753L117.361 8.77473L117.374 9.22632C115.272 9.83602 114.799 11.0922 114.685 11.5346L114.668 19.4868L113.934 19.1353L113.939 16.7691ZM118.625 22.7496L118.262 9.27738C118.417 9.19697 118.624 9.14493 118.856 9.11238L118.823 7.89916C119.281 7.82344 119.948 7.83059 119.948 7.83059L120.456 7.85945C121.98 8.02544 122.049 8.2373 122.049 8.2373C122.049 8.2373 122.093 8.30882 121.913 8.29205C121.445 8.24914 120.396 8.0903 120.072 8.10411L120.098 9.08031C120.72 9.11188 121.236 9.18908 121.236 9.18908L121.409 15.5894C122.201 15.4905 122.911 15.5946 122.911 15.5946L123.058 21.0248C122.77 20.9982 122.461 20.9866 122.136 20.9952C121.811 21.0041 121.502 21.0322 121.217 21.0746L121.073 15.7573C119.954 15.8493 119.26 16.2112 119.26 16.2112L119.437 22.7276L119.453 23.327L118.638 23.2387L118.625 22.7496ZM127.042 37.8984C127.166 37.7956 127.3 37.7092 127.441 37.6439C127.639 37.5524 127.851 37.4986 128.074 37.4924C128.386 37.4841 128.684 37.5709 128.952 37.728C129.013 37.763 129.072 37.802 129.129 37.8444C129.203 37.8994 129.275 37.9598 129.344 38.0262L129.645 38.0429C129.577 38.0661 129.512 38.0987 129.45 38.1376L129.383 38.1803C128.981 38.4738 128.695 39.0904 128.639 39.8264L126.116 39.8945C126.169 39.0539 126.523 38.3263 127.042 37.8984ZM130.282 38.0782L130.868 38.111C130.815 38.2139 130.766 38.3207 130.723 38.4321C130.591 38.2735 130.442 38.152 130.282 38.0782ZM129.344 41.3617L129.491 41.3578L129.837 41.3484L129.981 41.3445L130.701 41.325C130.731 41.4083 130.763 41.49 130.798 41.5691C130.625 41.8096 130.405 41.9574 130.161 41.9638C130.015 41.9677 129.874 41.9208 129.744 41.8328L129.687 41.7882C129.62 41.7346 129.556 41.6703 129.497 41.5955C129.442 41.526 129.39 41.4475 129.344 41.3617ZM130.518 40.6391L130.153 40.6489L129.959 40.6541L129.105 40.6773C129.075 40.5202 129.055 40.3547 129.051 40.1825C129.032 39.4762 129.253 38.8596 129.591 38.552C129.626 38.5199 129.663 38.4916 129.701 38.4664C129.813 38.3917 129.935 38.3473 130.063 38.3438C130.279 38.3382 130.482 38.443 130.655 38.6265C130.517 39.0505 130.443 39.5218 130.456 40.0193C130.462 40.2319 130.484 40.4388 130.518 40.6391ZM126.35 41.3733C126.227 41.0709 126.147 40.735 126.12 40.3779L128.636 40.31C128.659 40.6751 128.737 41.0137 128.856 41.3047L128.854 41.3057L126.35 41.3733ZM127.622 42.2373L129.482 42.187C129.142 42.567 128.703 42.8018 128.217 42.8152C127.897 42.8238 127.592 42.7323 127.318 42.5673C127.177 42.4822 127.043 42.3789 126.921 42.256L127.622 42.2373ZM134.552 38.3155C134.77 38.7644 134.905 39.3089 134.92 39.8987C134.946 40.8527 134.653 41.7038 134.184 42.2338C133.88 42.5777 133.502 42.7875 133.088 42.7989C132.35 42.8186 131.694 42.2116 131.351 41.3075C131.298 41.1664 131.251 41.0189 131.214 40.8645L131.199 40.7944C131.186 40.7377 131.175 40.68 131.164 40.6216L131.153 40.5643C131.124 40.3828 131.106 40.1949 131.1 40.0018C131.096 39.8609 131.102 39.723 131.112 39.5872C131.119 39.4776 131.131 39.3701 131.147 39.2645C131.21 38.8487 131.334 38.4681 131.506 38.1463C131.557 38.0516 131.612 37.9628 131.671 37.8787C131.886 37.5694 132.152 37.3378 132.45 37.2115C132.604 37.1464 132.765 37.1062 132.933 37.1018C133.294 37.0919 133.635 37.2349 133.93 37.4868C134.101 37.6328 134.256 37.816 134.391 38.0299C134.448 38.1204 134.503 38.2146 134.552 38.3155ZM126.504 24.1327C126.377 19.4382 133.022 20.1389 134.459 20.3892C137.575 20.9321 138.814 23.617 139.121 24.4827C139.76 26.279 139.704 28.1458 139.704 28.1458L139.701 28.147L139.705 28.1909L139.865 34.7688C139.865 34.7688 139.09 37.4024 134.879 37.5161C134.699 37.521 134.523 37.5183 134.351 37.5124C133.917 37.0211 133.357 36.7284 132.751 36.7446C132.431 36.7533 132.128 36.8482 131.853 37.0103C129.355 36.0422 128.222 34.0304 128.222 34.0304L128.194 33.0184L126.718 33.6434L126.504 24.1327ZM129.994 1.18267C131.518 1.34891 131.751 1.60738 131.751 1.60738C131.751 1.60738 131.851 1.74526 131.701 1.72947C131.304 1.68803 130.32 1.46409 129.853 1.47272L130.214 14.846L130.222 15.1427L130.263 15.3329L130.946 18.4918C130.946 18.4918 130.413 18.5814 129.763 18.8115C129.112 19.0413 128.585 19.327 128.585 19.327L128.481 15.4781L128.474 15.2125L128.006 1.30969C128.663 1.01471 129.994 1.18267 129.994 1.18267ZM145.48 33.5511L145.825 33.5418L146.044 37.802L144.838 37.9036L145.48 33.5511ZM146.687 33.4668L147.033 33.5092L148.118 37.8668L146.803 37.7813L146.687 33.4668ZM148.527 40.6011L151.351 40.6324C151.338 40.7584 151.333 40.8887 151.336 41.0219C151.343 41.2547 151.376 41.4762 151.429 41.6809L148.591 41.6493C148.543 41.452 148.513 41.2441 148.507 41.0278C148.503 40.882 148.511 40.7397 148.527 40.6011ZM153.384 41.9818C153.223 42.3411 152.97 42.5744 152.68 42.5823C152.509 42.5868 152.347 42.5113 152.206 42.3779C152.077 42.2563 151.965 42.0863 151.881 41.8814L151.862 41.8321L151.897 41.8323L152.212 41.8358L153.352 41.8486C153.362 41.8937 153.373 41.9374 153.384 41.9818ZM151.724 40.6368C151.734 40.551 151.748 40.4674 151.766 40.3877C151.784 40.3064 151.807 40.2284 151.833 40.1544C151.842 40.1288 151.852 40.1044 151.861 40.0797C151.894 39.998 151.931 39.9221 151.972 39.8525C152.131 39.5837 152.349 39.4147 152.594 39.4081C152.84 39.4014 153.067 39.5585 153.24 39.8182C153.284 39.8839 153.324 39.9559 153.36 40.0336C153.287 40.3549 153.251 40.7059 153.26 41.0734C153.261 41.1018 153.264 41.1294 153.265 41.1575L152.01 41.1434L151.834 41.1415L151.713 41.1402C151.71 41.1003 151.707 41.0608 151.706 41.0204C151.703 40.8879 151.71 40.7602 151.724 40.6368ZM67.6953 38.3594L66.8964 38.6386L67.0454 33.2964L67.8482 32.8216L67.6953 38.3594ZM66.3942 38.8142L65.7493 39.0396L65.8896 34.0008L66.5383 33.6056L66.3942 38.8142ZM65.2701 39.2076L64.5277 39.467L64.6954 34.7284L65.4057 34.2955L65.2701 39.2076ZM154.844 38.3377C154.62 38.3438 154.408 38.4228 154.216 38.5594C154.032 38.6906 153.868 38.8768 153.729 39.1035C153.677 39.1878 153.628 39.2766 153.584 39.3721C153.561 39.4199 153.54 39.4697 153.52 39.5203C153.483 39.6143 153.448 39.7117 153.418 39.8136L153.407 39.8567L153.386 39.8143C153.289 39.6237 153.17 39.4636 153.036 39.3437L153.034 39.3417C152.859 39.1856 152.659 39.0973 152.447 39.103C152.287 39.1074 152.136 39.1642 152 39.2631L151.976 39.2828C151.931 39.3173 151.89 39.3602 151.849 39.4034C151.825 39.4295 151.799 39.4606 151.771 39.4947C151.734 39.5405 151.698 39.5862 151.665 39.6392C151.637 39.6853 151.61 39.7337 151.585 39.7845C151.572 39.8104 151.56 39.837 151.548 39.8641C151.508 39.9537 151.473 40.0491 151.444 40.15L148.625 40.1187C148.745 39.7211 148.948 39.379 149.208 39.1291C149.314 39.0268 149.43 38.9405 149.553 38.8716C149.751 38.7614 149.968 38.6963 150.198 38.6901C150.41 38.6844 150.613 38.7306 150.804 38.8154L150.856 38.8388C150.879 38.8499 150.957 38.8872 151.047 38.9501C151.05 38.9518 151.053 38.953 151.055 38.955L151.106 38.9927L151.073 38.956C151.003 38.8786 150.93 38.8053 150.853 38.7399L150.801 38.6983C150.747 38.6556 150.693 38.6159 150.637 38.5794C150.338 38.3858 150.001 38.2792 149.647 38.2888C149.427 38.2948 149.218 38.3441 149.021 38.4304L148.726 38.403L148.624 38.0373L148.509 38.0405L147.507 34.1009L147.291 33.0359L147.061 32.8176L146.944 32.1357L146.695 32.056L146.682 31.5901L146.889 31.2707L146.873 30.6637L146.553 30.3601L146.547 30.1488L146.955 29.7181L146.951 29.5736L145.184 29.6212L145.191 29.8918L145.531 30.2136L145.539 30.5212L144.121 30.5597C144.121 30.5597 143.999 30.3096 143.798 30.315C143.597 30.3204 143.196 30.4164 143.209 30.6758C143.222 30.935 143.146 31.3171 143.555 31.3405C143.965 31.3639 143.937 31.1977 143.971 31.1854C144.005 31.173 145.567 31.672 145.567 31.672L145.579 32.109L145.374 32.1665L145.335 32.8583L145.098 33.6996L144.435 38.1216L143.358 38.3177L143.347 38.5271L140.775 38.3843L140.585 31.3459C140.585 31.3459 140.524 25.2623 139.317 23.4352C138.732 22.549 137.259 20.5434 136.626 20.1458L136.074 20.1608L135.944 19.5886L134.335 18.8721L134.314 18.0669L134.814 17.8459L134.73 14.7163L132.451 15.6298L132.44 15.6116C132.451 15.5524 132.442 15.4715 132.386 15.3524C132.356 15.2895 132.286 15.2295 132.187 15.1735L132.06 1.98474L132.271 1.54153L132.25 0.758943L131.903 0.423021C131.903 0.423021 130.556 -0.0961552 128.97 0.0158191C127.384 0.127793 127.151 0.113981 125.869 1.25395L125.894 2.17416L126.271 2.50959L126.256 2.78632C126.256 2.78632 125.138 3.18489 124.775 3.37899C124.411 3.5731 124.049 3.79014 124.058 4.13519C124.067 4.48049 124.775 5.08303 126.245 4.95132L126.797 14.3088L126.171 14.6598L126.104 12.8307L125.871 12.8371L125.638 12.9641L125.688 14.8021L125.221 15.0135L125.124 12.0454C125.124 12.0454 125.087 11.0016 124.934 10.7552C124.78 10.5088 124.085 9.72453 123.418 9.63032L123.381 8.25826L123.347 7.95712L123.322 7.69001L122.219 7.14099C122.219 7.14099 121.213 6.87708 119.392 6.95971C117.571 7.04208 117.287 7.41254 117.287 7.41254C117.287 7.41254 116.469 7.80593 116.484 8.02987C116.498 8.25432 116.53 8.46914 116.53 8.46914L113.748 10.0037L113.6 9.01199L113.386 9.06132L113.202 10.4336L113.218 11.4019L113.227 15.3551L113.216 16.8411L113.286 16.9173L113.307 19.1972L112.707 19.0949L111.689 18.5663L110.055 18.6235L109.349 18.958L109.122 19.1005C109.122 19.1005 108.27 19.2308 107.742 19.4012C107.213 19.5714 106.893 19.8824 106.879 19.9544C106.865 20.0262 106.814 20.3105 106.889 20.3572C106.965 20.4038 106.995 20.3934 106.995 20.3934L107.033 21.8205L105.255 21.4133L105.236 20.6928C105.263 20.6664 105.287 20.6307 105.303 20.5838C105.324 20.5204 105.334 20.3984 105.167 20.2884C105.153 20.279 105.138 20.2681 103.509 19.5228L103.179 19.3716L102.92 19.4981C102.662 19.5428 102.618 19.6071 102.6 19.6353C102.569 19.6804 102.522 19.7694 102.548 19.8582C102.563 19.9083 102.599 19.949 102.647 19.9699L102.671 19.9803L102.687 20.556L102.509 21.0253C101.498 20.8882 100.551 20.7619 100.415 20.752L100.128 20.7306C99.3746 20.6729 97.6035 20.5325 97.2478 20.551C97.1854 20.553 97.0722 20.5545 96.909 20.5564C95.9463 20.568 93.3887 20.5994 89.0762 20.9119L89.0402 20.9146L88.7514 21.104L85.6087 22.9607L85.0685 23.2613L84.5755 23.5709L84.0867 23.8597L84.0709 23.8762C83.7434 23.9283 81.8339 24.2326 81.4883 24.2842C81.1117 24.3401 78.7684 24.9254 78.6929 24.9528C78.6507 24.9681 78.5178 25.0537 77.5998 25.6661C77.2202 25.9196 76.7898 26.2067 76.7403 26.2336C76.6848 26.2632 76.2583 26.5123 75.7646 26.8004C75.2237 27.1166 74.632 27.4619 74.4936 27.5388C74.2332 27.6838 70.3493 30.0669 70.1819 30.1695L64.0502 34.0868L63.4232 34.4659L63.438 35.0066L64.0457 34.99L64.1449 34.8662L64.4154 34.8194L64.066 44.7076L66.338 45.8237L66.3454 46.094L66.4848 46.09L67.1638 46.0718L68.0383 47.212C68.0023 47.2081 67.9668 47.2031 67.9296 47.2039C67.4817 47.2162 67.1282 47.5891 67.1406 48.037C67.1524 48.4849 67.5253 48.8384 67.9735 48.8263C68.2507 48.8189 68.4909 48.6729 68.6315 48.4568L68.7758 48.4573L68.776 48.4827C68.8152 49.9342 69.294 51.0988 69.8455 51.0838C70.1922 51.0746 70.4852 50.6006 70.6451 49.8898L76.8522 49.7221C77.0967 51.2216 77.7392 52.2985 78.464 52.279C79.0239 52.2637 79.4994 51.5973 79.7619 50.5986L87.6178 50.5394C87.9217 51.5161 88.4241 52.1574 88.977 52.1423C89.6457 52.1243 90.1888 51.1536 90.3748 49.8076L93.8812 49.9776C94.212 52.899 95.5145 55.0904 97.0106 55.05C98.429 55.0117 99.5663 52.9792 99.8272 50.2657L100.252 50.2864C100.583 53.5509 102.025 56.02 103.683 55.9751C105.211 55.9337 106.439 53.7719 106.743 50.8692L106.744 50.8694L109.031 51.8111C109.808 54.8287 111.718 56.9506 113.894 56.8919C115.288 56.8541 116.524 55.9285 117.394 54.4649C118.181 55.0204 119.067 55.3245 119.999 55.2993C122.571 55.2298 124.666 52.6879 125.203 49.3028L125.37 49.4939C125.731 53.5075 128.243 56.5966 131.201 56.5167C132.351 56.4857 133.406 55.9793 134.277 55.137C134.376 55.0724 134.466 55.0014 134.537 54.9175C134.537 54.9175 134.83 55.0823 135.025 55.0655C135.22 55.0487 135.693 54.6445 135.718 54.2869C135.742 53.9295 135.784 53.3188 135.687 53.1597V53.1592L139.355 52.9451L139.889 53.1151L141.112 53.2315L141.906 53.2103C141.906 53.2103 142.043 53.598 142.548 53.5383C143.053 53.4786 143.067 53.1442 143.067 53.1442L143.425 53.1691C143.425 53.1691 144.168 53.142 144.919 53.0924C144.969 53.0936 145.018 53.0981 145.069 53.0968C145.219 53.0926 145.366 53.0734 145.511 53.0475C145.896 53.014 146.226 52.974 146.377 52.9281C146.82 52.7947 147.819 52.1996 148.151 50.441C148.249 50.0683 148.299 49.6725 148.288 49.2616C148.274 48.733 148.162 48.2333 147.974 47.782C147.549 46.659 146.792 46.1007 146.792 46.1007C146.792 46.1007 147.231 45.306 147.225 45.0759C147.224 45.048 147.223 45.0241 147.223 45.0026L154.171 45.1555L154.448 45.1617L154.453 44.8842L154.476 43.6022C154.639 43.6821 154.812 43.7245 154.99 43.7198C155.904 43.6949 156.613 42.4701 156.573 40.9839C156.533 39.4976 155.759 38.313 154.844 38.3377Z" fill="#1D1D1B"/>
<path d="M117.836 25.1707L113.398 24.7773L113.426 37.4958L118.152 36.8622L117.836 25.1707Z" fill="#1D1D1B"/>
<path d="M134.967 36.628C138.924 36.5212 139.657 34.2444 139.657 34.2444L139.651 33.9931L135.569 33.5501C135.365 33.5274 135.228 33.3299 135.278 33.1306C135.319 32.9671 135.473 32.8581 135.641 32.8751L139.634 33.2791L139.54 29.3642L137.38 29.1299L135.444 28.92C135.24 28.8968 135.103 28.6992 135.153 28.4999C135.194 28.3364 135.348 28.2277 135.516 28.2447L138.689 28.5754L139.523 28.6622L139.52 28.5633C139.517 28.4509 139.498 28.3455 139.471 28.2444C139.228 27.319 138.111 26.8536 138.111 26.8536L130.202 26.0474C129.05 26.0784 128.669 27.0238 128.583 27.5467L132.849 28.0846C133.017 28.1046 133.144 28.2442 133.149 28.4126C133.154 28.6178 132.978 28.7811 132.773 28.7594L128.574 28.2669L128.686 32.4311L129.392 32.5113L132.98 32.918C133.147 32.938 133.275 33.0776 133.279 33.246C133.285 33.4515 133.108 33.6145 132.904 33.5928L128.706 33.1563L128.719 33.6308C128.719 33.6308 130.621 36.7454 134.967 36.628Z" fill="#1D1D1B"/>
<path d="M142.136 38.7374L142.767 38.7727V38.7724L142.136 38.7374Z" fill="white"/>
<path d="M64.5398 39.9264L64.3704 44.282L74.7344 43.1823L74.9736 36.3264L64.5398 39.9264Z" fill="#E6322A"/>
<path d="M140.798 41.805L140.269 41.8422L140.242 42.2544L140.981 44.593L142.265 44.6214L141.269 42.1838L140.798 41.805Z" fill="#E6322A"/>
<path d="M151.437 42.7039C151.068 43.3612 150.478 43.7948 149.801 43.813C148.634 43.8446 147.653 42.6331 147.612 41.1071C147.591 40.311 147.831 39.5886 148.23 39.0731L142.774 38.7702L142.771 38.7986L141.988 38.7266H141.987L134.879 38.3317C135.084 38.79 135.209 39.3202 135.225 39.889C135.252 40.9113 134.921 41.8296 134.385 42.4323C133.991 42.8751 133.487 43.1486 132.93 43.1634C132.085 43.1863 131.329 42.6116 130.881 41.7292C130.657 42.0742 130.355 42.29 130.017 42.2992C129.841 42.3038 129.673 42.2518 129.517 42.1556L129.518 42.1847L129.498 42.1852C129.068 42.933 128.389 43.4241 127.612 43.445C127.323 43.4529 127.046 43.392 126.785 43.2791C125.821 42.8625 125.106 41.6969 125.069 40.3014C125.046 39.4613 125.275 38.6921 125.663 38.1092C125.728 38.0116 125.797 37.9183 125.871 37.8318L122.35 37.6362L120.469 37.5319L120.488 38.2488L120.643 43.9706L120.645 44.0491L120.646 44.0757L120.703 44.1411L126.235 44.2627L132.117 44.3924L135.74 44.472L140.694 44.5811L139.981 42.3255L137.986 42.3591L137.896 39.0223L140.2 39.0983L140.289 39.8098L140.876 40.2313C140.876 40.2313 141.12 40.7315 141.149 40.9611C141.178 41.1905 141.592 41.1565 141.749 41.0139C141.906 40.8714 141.873 40.4809 141.891 40.3194C141.91 40.1573 141.389 39.6189 141.389 39.6189L141.331 39.1599C141.331 39.1599 142.702 39.6295 142.682 40.5971C142.662 41.5649 142.211 41.8996 142.121 41.9941C142.072 42.0454 141.827 42.0949 141.613 42.1297L142.568 44.6223L154.168 44.8775L154.182 44.8778L154.188 44.5229L154.207 43.4635L154.208 43.4233L154.199 43.4169C153.87 43.1424 153.6 42.6972 153.437 42.1541C153.235 42.5855 152.918 42.8662 152.554 42.876C152.318 42.8825 152.096 42.7737 151.908 42.5825L151.537 42.5783L151.505 42.5781L151.437 42.7039Z" fill="#E6322A"/>
<path d="M69.8307 80.5559C69.9029 80.6635 69.9401 80.8227 69.9424 81.0333C69.9566 82.3559 69.971 83.6786 69.9852 85.0013C69.9889 85.3294 69.8444 85.532 69.5528 85.611C69.4485 85.6395 69.3489 85.6199 69.2541 85.5524C69.1594 85.4852 69.1113 85.3812 69.1097 85.2417C69.1053 84.8224 69.0553 84.3927 68.9599 83.9531C68.8645 83.5137 68.6382 83.1418 68.2829 82.8414C67.9272 82.5418 67.3914 82.3575 66.6784 82.2969C65.9646 82.2373 64.9786 82.3948 63.7244 82.7839C63.7833 89.0227 63.8423 95.2615 63.9011 101.5C63.9036 101.748 63.9063 102.04 63.9095 102.377C63.9126 102.714 63.9353 103.031 63.9787 103.326C64.0215 103.622 64.0844 103.869 64.1669 104.068C64.2488 104.267 64.3705 104.351 64.5316 104.321C64.6921 104.291 64.8132 104.319 64.8947 104.406C64.9759 104.493 65.0175 104.6 65.0187 104.724C65.0198 104.848 64.9759 104.97 64.8863 105.088C64.7966 105.206 64.6812 105.278 64.5409 105.303C63.1739 105.549 61.8099 105.807 60.4489 106.075C60.2885 106.107 60.1681 106.081 60.0877 105.999C60.0068 105.917 59.9661 105.816 59.9651 105.696C59.9641 105.576 60.0032 105.459 60.0824 105.344C60.1615 105.229 60.2811 105.155 60.4413 105.122C60.6013 105.09 60.7205 104.961 60.7988 104.736C60.877 104.511 60.9301 104.246 60.9578 103.943C60.9854 103.64 60.9977 103.323 60.9951 102.993C60.9924 102.663 60.9899 102.377 60.9879 102.135C60.9375 96.0186 60.8873 89.9019 60.8369 83.7856C59.6761 84.2382 58.7564 84.683 58.0728 85.1013C57.3892 85.5206 56.869 85.9538 56.5104 86.3944C56.1511 86.8361 55.9145 87.3166 55.8003 87.8369C55.6855 88.3576 55.63 88.9641 55.6333 89.6584C55.6349 89.9536 55.493 90.1539 55.2091 90.2614C54.9246 90.369 54.7823 90.2774 54.7812 89.9849C54.7761 88.8049 54.7712 87.6251 54.7664 86.4449C54.7656 86.2572 54.7987 86.0917 54.867 85.9474C54.9349 85.8036 55.0766 85.6853 55.2914 85.5946C59.9192 83.6405 64.6258 81.9407 69.3907 80.4949C69.6122 80.4278 69.7585 80.4487 69.8307 80.5559Z" fill="white"/>
<path d="M73.3684 90.1588C75.3368 89.6181 76.8448 88.7575 77.8851 87.5259C78.9258 86.2969 79.438 84.7581 79.4182 82.9159C79.4085 81.9956 79.2811 81.2551 79.0369 80.6972C78.793 80.1397 78.4726 79.7324 78.0771 79.4748C77.6816 79.2178 77.2195 79.0785 76.6928 79.0578C76.1657 79.037 75.614 79.1001 75.0386 79.2467C74.4426 79.3983 73.8473 79.5539 73.2526 79.7132C73.2913 83.195 73.3297 86.6769 73.3684 90.1588ZM84.6996 101.483C84.8658 101.466 84.9912 101.512 85.0758 101.622C85.1597 101.732 85.2031 101.853 85.2042 101.984C85.2056 102.115 85.1599 102.245 85.0673 102.373C84.975 102.501 84.8557 102.571 84.7103 102.586C84.1386 102.643 83.5669 102.702 82.9958 102.762C82.4553 102.82 81.9534 102.81 81.4895 102.732C81.0256 102.655 80.6216 102.389 80.2782 101.935C79.9344 101.481 79.6599 100.796 79.4556 99.8766C79.2507 98.9579 79.1396 97.6808 79.1221 96.0418C79.1083 94.751 79.0344 93.6924 78.901 92.8693C78.7674 92.0467 78.5528 91.4186 78.2576 90.9876C77.9618 90.5564 77.5696 90.2939 77.0814 90.2011C76.5925 90.108 75.9761 90.135 75.232 90.2841C74.612 90.4083 73.9927 90.5358 73.3739 90.6665C73.4108 93.9912 73.4476 97.3159 73.4845 100.641C73.511 101.17 73.5628 101.664 73.6408 102.125C73.7181 102.586 73.8808 102.798 74.1285 102.762C74.2935 102.738 74.418 102.777 74.502 102.878C74.5856 102.979 74.6286 103.099 74.6302 103.238C74.6316 103.376 74.5864 103.509 74.4951 103.634C74.4033 103.761 74.2848 103.833 74.1406 103.854C72.7365 104.051 71.3345 104.259 69.9354 104.478C69.7703 104.504 69.6516 104.468 69.5787 104.369C69.505 104.271 69.4681 104.154 69.4667 104.019C69.4651 103.885 69.4996 103.757 69.5706 103.634C69.6413 103.513 69.7588 103.438 69.9237 103.411C70.0673 103.388 70.1745 103.294 70.2453 103.128C70.3154 102.962 70.3697 102.751 70.4084 102.494C70.4468 102.238 70.4694 101.961 70.4767 101.663C70.4835 101.364 70.4856 101.072 70.4827 100.787C70.4185 94.9309 70.3545 89.0755 70.2905 83.2198C70.2847 82.6973 70.2431 82.2024 70.1662 81.7359C70.0887 81.27 69.9274 81.0726 69.6815 81.1446C69.5171 81.1927 69.3936 81.1762 69.311 81.0938C69.2278 81.0116 69.1857 80.9059 69.1844 80.7762C69.183 80.6464 69.2222 80.5163 69.3033 80.3853C69.3837 80.254 69.506 80.164 69.6702 80.1147C71.4489 79.5837 73.2356 79.0872 75.0289 78.6254C76.1417 78.3388 77.1547 78.1595 78.0668 78.082C78.9785 78.0047 79.7693 78.0847 80.4375 78.317C81.1056 78.5491 81.625 78.9836 81.9963 79.6151C82.3667 80.2464 82.5583 81.1309 82.5698 82.2622C82.5851 83.7714 82.2385 85.0549 81.5319 86.1072C80.8257 87.1597 79.8535 88.0415 78.6178 88.7652C79.3011 88.7636 79.8519 88.8899 80.2696 89.1426C80.687 89.3953 81.0181 89.8033 81.2626 90.3651C81.5071 90.9268 81.6702 91.642 81.7518 92.5085C81.8335 93.3752 81.8808 94.4228 81.8935 95.6512C81.908 97.0554 82.0074 98.1528 82.1925 98.9463C82.3772 99.7406 82.6071 100.33 82.8815 100.714C83.1553 101.099 83.4542 101.33 83.7779 101.409C84.1011 101.488 84.4081 101.513 84.6996 101.483Z" fill="white"/>
<path d="M86.1605 90.5105C87.3676 90.4042 88.3647 90.4896 89.1494 90.7597C89.9341 91.0312 90.5362 91.3288 90.9568 91.6472C90.699 90.7192 90.4355 89.7873 90.1668 88.8525C89.8977 87.9172 89.6397 87.0289 89.3928 86.1855C89.145 85.3433 88.9246 84.5635 88.7304 83.8454C88.536 83.1279 88.374 82.5096 88.244 81.9903C87.5474 84.8433 86.8529 87.6842 86.1605 90.5105ZM96.7781 100.54C96.9032 100.533 97.0077 100.586 97.0921 100.699C97.1758 100.812 97.2185 100.934 97.2193 101.065C97.2213 101.431 97.0762 101.621 96.7846 101.636C95.4092 101.71 94.0348 101.794 92.6616 101.889C92.3907 101.907 92.2542 101.736 92.2516 101.374C92.2507 101.245 92.2912 101.119 92.3737 100.997C92.4557 100.875 92.549 100.81 92.6535 100.802C92.9032 100.784 93.0267 100.569 93.0237 100.154C93.0427 99.9459 92.9929 99.5543 92.8744 98.9802C92.7554 98.4064 92.5885 97.7008 92.3739 96.8644C92.0985 96.2662 91.7595 95.6104 91.3581 94.898C90.9559 94.1864 90.4916 93.5283 89.9653 92.9267C89.4388 92.3249 88.8455 91.8312 88.1853 91.4473C87.5252 91.0632 86.8095 90.8973 86.0396 90.9462C85.3173 93.9143 84.5972 96.8666 83.8789 99.7994C83.758 100.167 83.7404 100.484 83.8261 100.752C83.8698 100.974 84.0116 101.167 84.2521 101.332C84.4919 101.496 84.8817 101.55 85.4214 101.497C85.4214 101.509 85.4216 101.522 85.4218 101.535C85.6913 101.508 85.8278 101.647 85.8308 101.952C85.8339 102.282 85.7002 102.46 85.4309 102.485C84.1553 102.608 82.8808 102.74 81.6081 102.881C81.3389 102.91 81.2027 102.763 81.1994 102.439C81.1964 102.139 81.3292 101.974 81.5985 101.943C81.5983 101.931 81.5983 101.918 81.5981 101.906C81.8667 101.875 82.0943 101.793 82.2796 101.659C82.4648 101.525 82.6185 101.357 82.7409 101.155C82.8634 100.953 82.9545 100.742 83.0146 100.521C83.0744 100.3 83.1347 100.086 83.1949 99.877C84.7497 93.5034 86.3122 87.0371 87.8858 80.5065C88.287 78.5785 88.5891 77.1976 88.792 76.3711C88.8323 76.2366 88.8886 76.0933 88.9611 75.9405C89.033 75.7888 89.1839 75.6944 89.4147 75.6596C89.6237 75.628 89.7608 75.6786 89.8246 75.8101C89.8886 75.9426 89.9416 76.0572 89.9849 76.1535C90.1145 76.624 90.2928 77.3059 90.5202 78.2027C90.7476 79.0996 91.0072 80.1292 91.299 81.2937C91.591 82.4578 91.9039 83.7138 92.2388 85.0609C92.5733 86.4087 92.9127 87.7601 93.2572 89.114C93.6012 90.4691 93.9349 91.7831 94.2569 93.0557C94.5789 94.329 94.8685 95.4713 95.1255 96.4808C95.3828 97.4911 95.6017 98.3227 95.7832 98.9759C95.9644 99.6287 96.0869 100.007 96.1499 100.107C96.3395 100.408 96.5173 100.555 96.6845 100.546C96.7157 100.544 96.7469 100.542 96.7781 100.54Z" fill="white"/>
<path d="M102.209 75.195C101.925 75.2112 101.712 75.4946 101.572 76.0424C101.432 76.5907 101.352 77.1551 101.333 77.7348C101.359 84.01 101.385 90.2854 101.412 96.5606C101.413 96.8506 101.431 97.1917 101.465 97.5849C101.499 97.9784 101.55 98.3518 101.616 98.7044C101.682 99.0575 101.77 99.3573 101.88 99.6033C101.989 99.85 102.13 99.9702 102.304 99.9647C102.477 99.9588 102.607 100.014 102.695 100.13C102.781 100.246 102.826 100.377 102.826 100.521C102.827 100.666 102.778 100.799 102.681 100.921C102.584 101.042 102.459 101.105 102.308 101.11C100.835 101.156 99.3623 101.213 97.8904 101.282C97.7169 101.29 97.5866 101.237 97.5001 101.123C97.4123 101.01 97.3684 100.881 97.3678 100.737C97.3667 100.594 97.4092 100.46 97.4956 100.338C97.5809 100.216 97.7105 100.151 97.8843 100.143C98.0572 100.134 98.1919 100.004 98.2881 99.7496C98.3843 99.4966 98.4582 99.1913 98.5107 98.8348C98.5626 98.4786 98.5934 98.1033 98.6024 97.7093C98.611 97.316 98.6149 96.9751 98.6133 96.6862C98.5802 90.4337 98.5472 84.1808 98.5142 77.9283C98.5113 77.352 98.4479 76.7993 98.3251 76.2713C98.202 75.7443 98.0094 75.4911 97.7472 75.5134C97.5719 75.5285 97.4404 75.4809 97.3528 75.3709C97.2646 75.2609 97.2201 75.1343 97.2192 74.9901C97.2184 74.8467 97.2613 74.7114 97.3485 74.586C97.4346 74.4602 97.5655 74.3897 97.7409 74.3744C99.2274 74.2449 100.716 74.1367 102.205 74.0494C102.358 74.0406 102.484 74.0924 102.584 74.2056C102.682 74.3187 102.732 74.4482 102.733 74.5924C102.733 74.7378 102.689 74.8717 102.603 74.995C102.515 75.1183 102.384 75.185 102.209 75.195Z" fill="white"/>
<path d="M119.507 74.4602C119.601 74.589 119.648 74.7216 119.647 74.8573C119.647 75.0217 119.599 75.1551 119.504 75.2576C119.409 75.361 119.309 75.4094 119.204 75.4031C118.868 75.3829 118.594 75.427 118.384 75.5343C118.174 75.6416 118.011 75.7784 117.895 75.9441C117.778 76.1101 117.699 76.3041 117.657 76.5259C117.613 76.7485 117.592 76.9651 117.592 77.1761C117.568 85.0798 117.544 92.9834 117.52 100.887C117.519 101.151 117.415 101.28 117.207 101.275C117.145 101.273 117.072 101.217 116.99 101.105C116.948 101.05 116.917 100.981 116.896 100.898C113.101 93.5077 109.267 86.1331 105.401 78.9503C105.414 85.3734 105.428 91.7968 105.441 98.2199C105.442 98.4317 105.463 98.6494 105.505 98.8728C105.547 99.097 105.625 99.3006 105.74 99.4831C105.855 99.6663 106.016 99.8153 106.225 99.9308C106.433 100.047 106.703 100.102 107.037 100.098C107.14 100.096 107.239 100.15 107.333 100.259C107.427 100.368 107.474 100.504 107.474 100.668C107.474 100.806 107.428 100.93 107.334 101.041C107.241 101.152 107.142 101.207 107.038 101.209C105.78 101.224 104.522 101.249 103.264 101.282C102.973 101.29 102.827 101.103 102.826 100.72C102.825 100.338 102.969 100.142 103.261 100.134C103.905 100.117 104.326 99.9026 104.523 99.4897C104.719 99.0762 104.818 98.6586 104.817 98.2361C104.8 91.3643 104.784 84.492 104.768 77.62C104.768 77.4616 104.746 77.2519 104.704 76.9896C104.661 76.7274 104.592 76.4662 104.497 76.206C104.402 75.9458 104.275 75.7267 104.117 75.5492C103.959 75.3714 103.743 75.2878 103.47 75.3005C103.365 75.3054 103.265 75.2557 103.17 75.1509C103.075 75.0468 103.028 74.9127 103.027 74.748C103.027 74.6121 103.074 74.4798 103.168 74.3519C103.262 74.2241 103.362 74.1575 103.467 74.1524C104.36 74.1098 105.254 74.0755 106.148 74.0493C106.442 74.0408 106.695 74.0963 106.905 74.2147C107.115 74.3332 107.284 74.4596 107.411 74.5933C107.558 74.7555 107.684 74.9448 107.79 75.1617C110.855 80.9297 113.899 86.8093 116.919 92.7124C116.933 87.5241 116.947 82.3358 116.962 77.1478C116.963 76.7256 116.864 76.3053 116.666 75.8873C116.467 75.4699 116.042 75.2465 115.391 75.2242C115.265 75.2199 115.159 75.1553 115.076 75.0292C114.992 74.9033 114.95 74.7719 114.95 74.6349C114.951 74.2519 115.098 74.0643 115.393 74.0745C116.665 74.1186 117.937 74.1795 119.208 74.257C119.313 74.2635 119.413 74.3312 119.507 74.4602Z" fill="white"/>
<path d="M132.576 101.44C133.398 101.512 134.117 101.232 134.734 100.603C135.351 99.9746 135.86 99.111 136.261 98.0117C136.662 96.9123 136.964 95.6228 137.169 94.1391C137.373 92.656 137.484 91.0935 137.499 89.4462C137.516 87.7233 137.445 86.1014 137.289 84.576C137.133 83.0509 136.869 81.6954 136.498 80.5081C136.126 79.3215 135.636 78.3523 135.028 77.6055C134.419 76.8592 133.671 76.4079 132.784 76.2647C132.199 76.1705 131.613 76.0799 131.027 75.9933C130.962 84.4262 130.897 92.8591 130.832 101.292C131.414 101.339 131.995 101.388 132.576 101.44ZM132.789 75.6084C134.303 75.8555 135.558 76.4329 136.557 77.3089C137.556 78.1854 138.35 79.275 138.94 80.5652C139.53 81.8557 139.936 83.3011 140.161 84.9013C140.386 86.5022 140.489 88.1762 140.471 89.9292C140.455 91.5071 140.285 93.046 139.96 94.5553C139.634 96.0653 139.151 97.3881 138.51 98.5319C137.868 99.6768 137.053 100.577 136.066 101.238C135.079 101.899 133.914 102.173 132.571 102.057C130.828 101.906 129.082 101.774 127.335 101.66C127.174 101.649 127.054 101.583 126.974 101.46C126.895 101.337 126.855 101.204 126.856 101.06C126.857 100.917 126.898 100.789 126.979 100.677C127.06 100.564 127.181 100.514 127.342 100.525C127.503 100.536 127.619 100.374 127.692 100.04C127.764 99.7065 127.822 99.3198 127.866 98.8793C127.909 98.3875 127.933 97.8159 127.937 97.1641C127.979 90.95 128.021 84.7357 128.063 78.5216C128.067 77.949 128.035 77.3908 127.968 76.8476C127.901 76.3054 127.746 76.0181 127.503 75.9888C127.34 75.9692 127.219 75.8961 127.139 75.7691C127.059 75.6422 127.019 75.5071 127.02 75.3629C127.021 75.22 127.062 75.0937 127.144 74.9861C127.226 74.8781 127.348 74.8341 127.51 74.8541C129.273 75.0707 131.033 75.3221 132.789 75.6084Z" fill="#E6322A"/>
<path d="M153.175 80.7304C153.253 80.8847 153.291 81.0665 153.289 81.2765C153.275 82.5959 153.262 83.9153 153.248 85.2347C153.247 85.3747 153.2 85.4841 153.109 85.5632C153.019 85.6424 152.913 85.6651 152.793 85.6307C152.673 85.5964 152.574 85.5152 152.495 85.387C152.416 85.2588 152.378 85.124 152.379 84.9834C152.386 84.3729 152.381 83.8126 152.367 83.3015C152.352 82.7909 152.217 82.3147 151.961 81.8711C151.705 81.4282 151.273 81.0133 150.664 80.6304C150.055 80.2486 149.16 79.8829 147.973 79.5547C146.897 79.2576 145.818 78.9732 144.737 78.7017C144.697 82.4231 144.657 86.1447 144.617 89.8661C145.466 90.0338 146.313 90.208 147.159 90.3885C147.32 90.4229 147.557 90.4615 147.869 90.5051C148.181 90.5495 148.499 90.5349 148.823 90.4636C149.146 90.392 149.425 90.217 149.659 89.9367C149.894 89.6568 150.014 89.2092 150.021 88.5901C150.025 88.257 150.167 88.1247 150.448 88.1951C150.568 88.2253 150.673 88.2995 150.762 88.4167C150.851 88.5343 150.895 88.6637 150.893 88.8062C150.874 90.6059 150.855 92.4056 150.836 94.2058C150.834 94.3479 150.788 94.4624 150.697 94.5496C150.605 94.6367 150.499 94.6677 150.379 94.642C150.258 94.6164 150.158 94.5416 150.079 94.4177C150 94.2936 149.961 94.1599 149.963 94.0171C149.97 93.3988 149.859 92.8977 149.632 92.5125C149.404 92.1279 149.13 91.8277 148.81 91.6137C148.49 91.3996 148.174 91.2467 147.862 91.1557C147.55 91.0649 147.314 91.0027 147.153 90.9688C146.307 90.7909 145.459 90.6192 144.611 90.4538C144.567 94.5303 144.523 98.6067 144.479 102.683C145.56 102.831 146.639 102.986 147.717 103.147C148.906 103.326 149.807 103.368 150.422 103.266C151.037 103.165 151.477 102.956 151.742 102.636C152.006 102.317 152.152 101.908 152.177 101.406C152.202 100.905 152.218 100.35 152.225 99.7392C152.228 99.4106 152.37 99.2736 152.651 99.3297C152.771 99.3538 152.876 99.4219 152.965 99.5331C153.054 99.6448 153.098 99.7705 153.097 99.9107C153.083 101.23 153.069 102.549 153.056 103.868C153.054 104.079 153.011 104.241 152.93 104.356C152.848 104.471 152.697 104.51 152.477 104.473C148.654 103.836 144.811 103.286 140.954 102.824C140.791 102.805 140.67 102.734 140.591 102.613C140.511 102.491 140.472 102.362 140.473 102.224C140.475 102.088 140.516 101.968 140.599 101.865C140.68 101.763 140.803 101.722 140.965 101.743C141.127 101.763 141.249 101.66 141.333 101.434C141.416 101.209 141.475 100.93 141.509 100.599C141.543 100.268 141.562 99.9165 141.566 99.5444C141.569 99.1726 141.573 98.8502 141.576 98.577C141.637 92.6591 141.699 86.7416 141.761 80.8242C141.767 80.2787 141.737 79.7436 141.671 79.2186C141.605 78.6947 141.451 78.404 141.207 78.3498C141.045 78.3138 140.923 78.231 140.843 78.101C140.763 77.9713 140.724 77.838 140.726 77.7006C140.727 77.5639 140.769 77.4479 140.851 77.3539C140.933 77.2598 141.056 77.2312 141.219 77.268C145.086 78.1439 148.926 79.1859 152.728 80.3942C152.947 80.4639 153.096 80.5766 153.175 80.7304Z" fill="#E6322A"/>
<path d="M160.157 92.7278C161.052 93.422 161.868 94.0857 162.605 94.7167C163.342 95.3487 163.971 95.9985 164.493 96.6631C165.014 97.3283 165.414 98.0251 165.693 98.7547C165.971 99.4847 166.109 100.299 166.105 101.204C166.102 101.941 165.983 102.634 165.746 103.291C165.509 103.949 165.145 104.505 164.654 104.966C164.162 105.427 163.533 105.753 162.766 105.947C161.999 106.141 161.085 106.136 160.022 105.926C159.333 105.79 158.64 105.556 157.941 105.22C157.243 104.883 156.604 104.462 156.026 103.952C155.447 103.442 154.977 102.853 154.618 102.182C154.258 101.512 154.082 100.77 154.09 99.9587C154.097 99.2872 154.207 98.7471 154.418 98.3414C154.63 97.9358 154.89 97.6419 155.199 97.4585C155.507 97.2758 155.843 97.1995 156.209 97.2288C156.574 97.2585 156.913 97.3689 157.227 97.5586C157.54 97.7482 157.789 98.03 157.973 98.4017C158.157 98.7736 158.257 99.1528 158.273 99.5393C158.289 99.9265 158.207 100.29 158.027 100.633C157.846 100.976 157.538 101.213 157.103 101.347C156.647 101.5 156.383 101.771 156.31 102.155C156.237 102.541 156.332 102.949 156.595 103.377C156.858 103.805 157.279 104.21 157.859 104.594C158.437 104.978 159.16 105.253 160.026 105.427C160.832 105.59 161.487 105.549 161.99 105.307C162.492 105.066 162.858 104.696 163.086 104.197C163.315 103.698 163.411 103.106 163.377 102.417C163.341 101.727 163.194 101.02 162.935 100.29C162.676 99.5592 162.304 98.8326 161.82 98.1084C161.335 97.3839 160.753 96.7478 160.071 96.2038C159.271 95.5618 158.521 94.9247 157.818 94.2931C157.115 93.6613 156.501 92.9891 155.975 92.2733C155.449 91.5586 155.037 90.7894 154.739 89.9671C154.441 89.1448 154.297 88.2219 154.308 87.2035C154.317 86.2315 154.464 85.3747 154.748 84.6411C155.031 83.908 155.426 83.3185 155.932 82.8794C156.438 82.4408 157.04 82.1754 157.737 82.0866C158.433 81.9976 159.209 82.1196 160.064 82.4494C160.977 82.8014 161.795 83.283 162.517 83.8801C163.24 84.4775 163.849 85.122 164.348 85.8091C164.846 86.4959 165.228 87.2011 165.495 87.9239C165.761 88.6474 165.894 89.3118 165.891 89.9238C165.888 90.5363 165.809 91.0128 165.653 91.357C165.497 91.7012 165.297 91.9471 165.055 92.094C164.812 92.2417 164.545 92.3026 164.254 92.2762C163.964 92.2501 163.692 92.1623 163.44 92.0113C163.15 91.8255 162.879 91.5549 162.629 91.1966C162.378 90.8391 162.21 90.4649 162.125 90.0746C162.04 89.6844 162.058 89.3068 162.177 88.9442C162.296 88.5825 162.57 88.3034 162.999 88.1153C163.368 87.9489 163.602 87.6607 163.702 87.2458C163.801 86.8312 163.741 86.372 163.521 85.8629C163.302 85.3541 162.908 84.8325 162.34 84.3C161.771 83.7684 161.012 83.312 160.06 82.9487C159.263 82.6447 158.603 82.5975 158.083 82.8059C157.562 83.0145 157.181 83.3887 156.94 83.9228C156.699 84.457 156.585 85.1121 156.597 85.8815C156.609 86.6511 156.754 87.4513 157.032 88.2767C157.309 89.1025 157.71 89.9111 158.233 90.7004C158.756 91.4903 159.398 92.1639 160.157 92.728" fill="#E6322A"/>
<path d="M68.6922 129.63C68.8745 129.628 69.0014 129.682 69.0739 129.789C69.1458 129.896 69.1827 130.016 69.1843 130.147C69.1856 130.279 69.1413 130.399 69.0513 130.507C68.9612 130.616 68.8448 130.67 68.7033 130.67C67.3347 130.673 65.966 130.676 64.5974 130.679C64.4347 130.679 64.3127 130.627 64.2311 130.523C64.1487 130.419 64.1073 130.304 64.1061 130.176C64.1049 130.049 64.1389 129.932 64.2093 129.827C64.2791 129.723 64.4052 129.668 64.5877 129.667C64.7498 129.665 64.8703 129.563 64.9495 129.359C65.0284 129.155 65.0819 128.901 65.1091 128.595C65.1369 128.29 65.1489 127.968 65.1456 127.629C65.1421 127.291 65.1392 126.986 65.1367 126.715C65.0871 121.646 65.0376 116.577 64.9882 111.508C63.2677 118.007 61.5384 124.29 59.7895 130.317C59.7699 130.428 59.7305 130.529 59.6702 130.618C59.5701 130.818 59.4393 130.919 59.2773 130.919C59.0538 130.919 58.8909 130.819 58.7883 130.62C58.7271 130.532 58.6855 130.422 58.6645 130.289C58.6025 130.09 58.4828 129.689 58.3069 129.09C58.1306 128.49 57.9083 127.761 57.6405 126.906C57.3721 126.051 57.0787 125.119 56.7605 124.11C56.4418 123.103 56.1192 122.093 55.7927 121.082C55.4656 120.072 55.1549 119.096 54.8604 118.151C54.5656 117.207 54.2974 116.382 54.0551 115.673C53.8127 114.964 53.6209 114.398 53.4804 113.968C53.3391 113.539 53.2692 113.315 53.269 113.294C53.2824 118.33 53.2958 123.366 53.3094 128.401C53.3098 128.565 53.33 128.734 53.3714 128.908C53.412 129.081 53.4886 129.234 53.6003 129.366C53.7117 129.498 53.8693 129.609 54.072 129.699C54.2747 129.79 54.5384 129.834 54.8626 129.83C54.9638 129.829 55.0602 129.871 55.1519 129.957C55.2435 130.043 55.2895 130.151 55.2901 130.281C55.2907 130.411 55.2456 130.514 55.1547 130.59C55.0637 130.666 54.9673 130.704 54.8661 130.704C53.6396 130.708 52.4133 130.711 51.1868 130.715C50.9028 130.716 50.7614 130.571 50.7614 130.281C50.7614 130.178 50.8018 130.079 50.8828 129.985C50.9633 129.891 51.0649 129.843 51.1864 129.841C51.8141 129.834 52.2238 129.673 52.416 129.355C52.6074 129.037 52.7032 128.714 52.7026 128.388C52.691 122.81 52.6793 117.231 52.6679 111.652C52.6272 111.476 52.5478 111.318 52.4282 111.179C52.3285 111.077 52.1845 110.989 51.9958 110.916C51.8069 110.843 51.544 110.841 51.2072 110.91C50.9293 110.967 50.7911 110.851 50.7911 110.561C50.7911 110.271 50.9293 110.096 51.2068 110.036C52.3952 109.78 53.5861 109.532 54.7794 109.292C55.018 109.244 55.2122 109.252 55.362 109.316C55.5117 109.381 55.6364 109.457 55.7367 109.542C55.8368 109.649 55.9173 109.781 55.9781 109.938C57.4685 114.721 58.9807 119.714 60.5071 124.893C61.9613 119.626 63.4032 114.18 64.8388 108.579C64.8769 108.37 64.9455 108.179 65.0446 108.004C65.1233 107.857 65.2329 107.709 65.3726 107.562C65.5118 107.415 65.6921 107.323 65.9137 107.288C66.7587 107.154 67.6047 107.023 68.4514 106.896C68.7334 106.854 68.8766 107.002 68.8801 107.337C68.8838 107.673 68.7441 107.861 68.4621 107.901C68.3004 107.924 68.1854 108.01 68.1164 108.159C68.047 108.307 67.9986 108.493 67.9708 108.715C67.9428 108.938 67.9249 109.176 67.9177 109.43C67.91 109.685 67.9078 109.938 67.9106 110.191C67.9679 115.672 68.0254 121.154 68.0829 126.636C68.0857 126.912 68.089 127.222 68.0927 127.567C68.0963 127.912 68.1199 128.239 68.1638 128.548C68.2075 128.858 68.2658 129.116 68.3391 129.322C68.4123 129.529 68.5297 129.631 68.6922 129.63Z" fill="#E6322A"/>
<path d="M76.6866 130.225C77.3658 130.223 77.9262 129.983 78.368 129.502C78.8095 129.02 79.1514 128.278 79.3938 127.275C79.6358 126.272 79.7979 124.995 79.8797 123.446C79.9612 121.898 79.9914 120.046 79.9698 117.893C79.9486 115.766 79.8812 113.932 79.7687 112.395C79.6556 110.858 79.4677 109.601 79.2052 108.627C78.9421 107.653 78.5845 106.959 78.1327 106.543C77.6806 106.128 77.1149 105.963 76.4353 106.048C75.1536 106.208 74.2186 107.291 73.6279 109.257C73.0373 111.227 72.7634 114.251 72.8064 118.354C72.8496 122.482 73.1865 125.479 73.8177 127.375C74.4491 129.269 75.4055 130.229 76.6866 130.225ZM76.4276 105.317C77.185 105.22 77.9403 105.359 78.6941 105.741C79.447 106.122 80.1216 106.804 80.716 107.79C81.3104 108.775 81.8004 110.085 82.1864 111.718C82.5721 113.351 82.7765 115.362 82.7992 117.74C82.8221 120.143 82.6564 122.186 82.3034 123.857C81.9502 125.529 81.4875 126.889 80.9152 127.94C80.343 128.99 79.6853 129.748 78.9432 130.218C78.2004 130.688 77.4508 130.919 76.6938 130.919C75.9951 130.919 75.2547 130.688 74.4737 130.233C73.6925 129.779 72.9714 129.053 72.3112 128.065C71.6504 127.077 71.1036 125.808 70.6709 124.258C70.2374 122.708 70.0103 120.816 69.9872 118.562C69.9645 116.334 70.1526 114.421 70.5529 112.807C70.9525 111.195 71.4714 109.846 72.1099 108.764C72.7478 107.682 73.4521 106.856 74.2229 106.295C74.9933 105.735 75.7287 105.406 76.4276 105.317Z" fill="#E6322A"/>
<path d="M98.3764 104.827C97.9183 104.846 97.5862 104.999 97.3787 105.283C97.1713 105.567 97.0186 105.869 96.9211 106.187C96.8233 106.559 96.7761 106.979 96.7788 107.45C96.8271 112.616 96.8754 117.783 96.9236 122.951C96.9306 124.207 96.8033 125.327 96.5424 126.31C96.2814 127.293 95.9064 128.132 95.4179 128.825C94.9289 129.519 94.3509 130.041 93.6834 130.393C93.0156 130.744 92.2684 130.919 91.4412 130.919C90.8104 130.919 90.1153 130.867 89.3562 130.765C88.5968 130.663 87.885 130.362 87.2205 129.867C86.5559 129.372 85.9924 128.605 85.5294 127.57C85.0663 126.535 84.8263 125.084 84.8087 123.211C84.7653 118.514 84.7217 113.817 84.678 109.12C84.6752 108.816 84.6767 108.474 84.6833 108.093C84.6896 107.712 84.6811 107.346 84.6582 106.993C84.635 106.64 84.578 106.348 84.4868 106.115C84.3954 105.883 84.2607 105.775 84.0825 105.791C83.9239 105.806 83.8044 105.76 83.7247 105.654C83.6442 105.548 83.6036 105.426 83.6023 105.287C83.601 105.149 83.6391 105.019 83.7175 104.897C83.7951 104.776 83.9135 104.708 84.0721 104.692C85.4184 104.561 86.766 104.44 88.1149 104.33C88.2535 104.319 88.3683 104.367 88.4586 104.475C88.5489 104.583 88.5945 104.709 88.5957 104.849C88.5968 104.991 88.5579 105.122 88.4797 105.243C88.4014 105.365 88.2828 105.432 88.1244 105.444C87.9458 105.458 87.813 105.591 87.7258 105.841C87.6386 106.091 87.5819 106.396 87.5551 106.756C87.5283 107.116 87.5213 107.488 87.5349 107.87C87.5479 108.253 87.556 108.598 87.5587 108.905C87.5993 113.648 87.6399 118.391 87.6805 123.134C87.7016 125.614 88.0228 127.43 88.6438 128.593C89.2643 129.755 90.1952 130.339 91.4369 130.338C92.3428 130.336 93.1049 130.102 93.7227 129.632C94.3405 129.162 94.8294 128.568 95.19 127.848C95.5505 127.129 95.8071 126.337 95.9602 125.473C96.113 124.609 96.1872 123.772 96.1825 122.962C96.1528 117.801 96.123 112.641 96.0934 107.48C96.0907 107.01 96.0384 106.594 95.937 106.233C95.8354 105.925 95.68 105.638 95.4697 105.375C95.2593 105.112 94.9453 104.991 94.5278 105.015C94.4087 105.021 94.3086 104.969 94.2286 104.855C94.1481 104.743 94.1077 104.609 94.1066 104.453C94.1043 104.088 94.242 103.898 94.5209 103.882C95.8033 103.807 97.0867 103.742 98.3707 103.686C98.4902 103.68 98.595 103.729 98.6849 103.829C98.775 103.931 98.8207 104.06 98.8212 104.218C98.822 104.375 98.7778 104.515 98.6887 104.637C98.5999 104.759 98.4957 104.822 98.3764 104.827Z" fill="#E6322A"/>
<path d="M112.315 103.908C112.397 104.055 112.438 104.247 112.438 104.485C112.437 105.982 112.436 107.48 112.435 108.977C112.435 109.136 112.388 109.275 112.296 109.393C112.204 109.512 112.096 109.571 111.973 109.571C111.85 109.571 111.748 109.511 111.666 109.391C111.584 109.272 111.543 109.132 111.543 108.973C111.543 108.285 111.533 107.655 111.513 107.085C111.492 106.516 111.349 106.025 111.082 105.614C110.815 105.203 110.368 104.884 109.742 104.661C109.115 104.438 108.195 104.33 106.984 104.345C105.885 104.359 104.786 104.379 103.687 104.405L103.723 116.452C104.581 116.441 105.439 116.432 106.298 116.425C106.461 116.423 106.701 116.408 107.018 116.38C107.335 116.351 107.656 116.256 107.983 116.096C108.31 115.935 108.591 115.669 108.826 115.297C109.061 114.925 109.178 114.395 109.178 113.706C109.177 113.335 109.32 113.149 109.607 113.148C109.73 113.148 109.838 113.201 109.93 113.306C110.022 113.412 110.068 113.545 110.068 113.704C110.068 115.718 110.069 117.732 110.07 119.746C110.07 119.905 110.024 120.044 109.932 120.164C109.84 120.283 109.733 120.343 109.611 120.343C109.488 120.343 109.386 120.284 109.304 120.165C109.222 120.045 109.182 119.906 109.182 119.747C109.181 119.059 109.063 118.529 108.828 118.158C108.593 117.788 108.312 117.524 107.985 117.367C107.658 117.21 107.336 117.119 107.019 117.094C106.702 117.07 106.462 117.059 106.299 117.06C105.441 117.067 104.583 117.076 103.725 117.087C103.738 121.486 103.751 125.885 103.764 130.283C104.851 130.283 105.938 130.282 107.025 130.281C108.223 130.281 109.132 130.168 109.752 129.942C110.372 129.718 110.814 129.399 111.078 128.988C111.342 128.578 111.485 128.088 111.506 127.517C111.526 126.948 111.537 126.319 111.537 125.629C111.537 125.259 111.679 125.073 111.965 125.073C112.087 125.073 112.194 125.127 112.285 125.233C112.377 125.339 112.423 125.471 112.423 125.63C112.421 127.127 112.42 128.624 112.419 130.121C112.419 130.36 112.378 130.553 112.297 130.698C112.215 130.844 112.063 130.916 111.84 130.916C107.97 130.916 104.101 130.917 100.231 130.919C100.069 130.919 99.9463 130.86 99.8649 130.742C99.783 130.623 99.7419 130.492 99.7411 130.348C99.7405 130.203 99.7804 130.071 99.8614 129.953C99.9416 129.834 100.063 129.775 100.226 129.775C100.389 129.774 100.51 129.649 100.59 129.398C100.67 129.148 100.725 128.845 100.754 128.489C100.783 128.134 100.797 127.759 100.795 127.364C100.794 126.969 100.792 126.627 100.791 126.336C100.765 120.055 100.739 113.775 100.712 107.494C100.71 106.915 100.672 106.356 100.598 105.818C100.523 105.282 100.363 105.016 100.117 105.025C99.9527 105.031 99.8293 104.976 99.7472 104.861C99.6642 104.746 99.6228 104.616 99.6222 104.471C99.6216 104.327 99.6619 104.193 99.7435 104.072C99.8246 103.95 99.9476 103.887 100.112 103.88C104.023 103.736 107.938 103.672 111.853 103.688C112.079 103.689 112.233 103.763 112.315 103.908Z" fill="#E6322A"/>
<path d="M128.358 104.458C128.426 104.606 128.46 104.796 128.458 105.03C128.448 106.499 128.438 107.968 128.427 109.437C128.425 109.801 128.28 109.975 127.993 109.961C127.89 109.955 127.793 109.899 127.701 109.79C127.609 109.681 127.564 109.548 127.565 109.392C127.568 108.923 127.527 108.426 127.441 107.9C127.355 107.374 127.14 106.873 126.796 106.398C126.451 105.922 125.927 105.501 125.224 105.137C124.521 104.774 123.543 104.534 122.29 104.429C122.255 111.732 122.221 119.036 122.186 126.339C122.184 126.629 122.183 126.971 122.181 127.366C122.179 127.761 122.197 128.136 122.235 128.491C122.272 128.847 122.33 129.15 122.408 129.4C122.485 129.65 122.602 129.775 122.76 129.776C122.918 129.776 123.036 129.835 123.114 129.954C123.192 130.072 123.231 130.204 123.23 130.348C123.229 130.493 123.184 130.624 123.095 130.742C123.006 130.86 122.892 130.919 122.755 130.919C121.416 130.918 120.077 130.918 118.738 130.917C118.581 130.917 118.463 130.857 118.385 130.738C118.306 130.619 118.267 130.487 118.268 130.341C118.268 130.196 118.308 130.064 118.387 129.945C118.466 129.826 118.584 129.767 118.742 129.767C118.9 129.767 119.018 129.642 119.098 129.391C119.178 129.14 119.233 128.836 119.264 128.48C119.295 128.123 119.311 127.746 119.312 127.35C119.314 126.954 119.315 126.611 119.316 126.32C119.343 118.974 119.369 111.628 119.396 104.282C118.228 104.273 117.297 104.356 116.604 104.527C115.911 104.698 115.381 104.968 115.014 105.333C114.647 105.7 114.404 106.181 114.285 106.776C114.165 107.372 114.105 108.108 114.104 108.983C114.103 109.355 113.958 109.539 113.671 109.536C113.382 109.534 113.239 109.348 113.239 108.976C113.241 107.476 113.242 105.976 113.244 104.476C113.244 104.237 113.279 104.045 113.349 103.9C113.419 103.755 113.564 103.683 113.783 103.685C118.503 103.739 123.221 103.915 127.927 104.216C128.146 104.23 128.289 104.311 128.358 104.458Z" fill="#E6322A"/>
<path d="M144.379 106.08C144.448 106.222 144.48 106.403 144.478 106.623C144.463 108.002 144.449 109.381 144.434 110.759C144.431 111.101 144.285 111.258 143.999 111.23C143.896 111.22 143.8 111.162 143.708 111.056C143.617 110.949 143.573 110.822 143.574 110.675C143.579 110.234 143.539 109.764 143.455 109.264C143.372 108.765 143.159 108.282 142.817 107.814C142.475 107.347 141.954 106.92 141.255 106.535C140.554 106.151 139.58 105.866 138.331 105.693C138.263 112.648 138.196 119.603 138.129 126.557C138.126 126.834 138.123 127.159 138.119 127.535C138.116 127.911 138.132 128.269 138.168 128.607C138.204 128.946 138.261 129.235 138.338 129.473C138.414 129.711 138.531 129.831 138.69 129.832C138.848 129.833 138.966 129.889 139.044 130.002C139.122 130.115 139.16 130.24 139.159 130.377C139.158 130.515 139.112 130.639 139.022 130.751C138.932 130.863 138.817 130.919 138.679 130.919C137.336 130.918 135.992 130.916 134.648 130.914C134.49 130.914 134.372 130.856 134.294 130.742C134.216 130.627 134.178 130.5 134.179 130.36C134.18 130.221 134.221 130.094 134.301 129.98C134.381 129.866 134.5 129.809 134.658 129.81C134.816 129.811 134.936 129.691 135.017 129.451C135.098 129.211 135.155 128.92 135.188 128.578C135.221 128.236 135.239 127.875 135.242 127.496C135.246 127.116 135.249 126.787 135.251 126.508C135.315 119.467 135.378 112.427 135.442 105.387C134.275 105.31 133.345 105.337 132.651 105.463C131.957 105.589 131.425 105.82 131.057 106.154C130.688 106.489 130.442 106.942 130.319 107.513C130.195 108.084 130.131 108.795 130.125 109.644C130.122 110.004 129.976 110.176 129.688 110.161C129.4 110.145 129.257 109.958 129.259 109.596C129.27 108.139 129.28 106.683 129.291 105.226C129.293 104.994 129.328 104.809 129.4 104.672C129.471 104.535 129.616 104.474 129.835 104.489C134.556 104.812 139.265 105.257 143.951 105.826C144.169 105.852 144.311 105.937 144.379 106.08Z" fill="#E6322A"/>
<path d="M157.178 108.011C157.257 108.148 157.296 108.317 157.294 108.519C157.282 109.788 157.27 111.057 157.258 112.326C157.257 112.46 157.211 112.572 157.12 112.661C157.029 112.751 156.923 112.788 156.802 112.772C156.682 112.756 156.582 112.692 156.503 112.58C156.423 112.468 156.384 112.344 156.386 112.209C156.391 111.621 156.386 111.083 156.371 110.594C156.356 110.106 156.219 109.667 155.962 109.276C155.705 108.886 155.271 108.546 154.661 108.258C154.051 107.971 153.154 107.735 151.967 107.564C150.891 107.409 149.814 107.26 148.735 107.117C148.696 110.719 148.656 114.322 148.617 117.925C149.465 117.987 150.312 118.051 151.159 118.117C151.32 118.13 151.557 118.137 151.87 118.138C152.182 118.14 152.501 118.084 152.825 117.972C153.148 117.86 153.428 117.654 153.663 117.352C153.897 117.051 154.018 116.603 154.024 116.006C154.027 115.685 154.17 115.538 154.451 115.567C154.572 115.58 154.677 115.637 154.767 115.737C154.857 115.838 154.901 115.956 154.899 116.094C154.882 117.828 154.864 119.562 154.847 121.296C154.846 121.433 154.799 121.55 154.707 121.647C154.616 121.744 154.509 121.789 154.388 121.782C154.268 121.774 154.167 121.716 154.088 121.608C154.008 121.5 153.969 121.377 153.97 121.239C153.977 120.642 153.865 120.176 153.637 119.836C153.408 119.497 153.134 119.246 152.813 119.082C152.492 118.919 152.175 118.814 151.863 118.766C151.55 118.72 151.314 118.69 151.153 118.678C150.306 118.614 149.458 118.553 148.61 118.494C148.567 122.44 148.524 126.387 148.481 130.333C149.562 130.339 150.644 130.344 151.725 130.35C152.917 130.357 153.822 130.264 154.441 130.074C155.059 129.885 155.501 129.616 155.767 129.268C156.033 128.921 156.178 128.506 156.204 128.02C156.228 127.534 156.243 126.998 156.249 126.411C156.252 126.094 156.395 125.941 156.677 125.952C156.799 125.956 156.904 126.006 156.994 126.098C157.084 126.192 157.128 126.306 157.127 126.44C157.115 127.709 157.103 128.978 157.091 130.247C157.089 130.449 157.047 130.612 156.966 130.735C156.883 130.858 156.731 130.92 156.509 130.919C152.659 130.91 148.808 130.902 144.958 130.895C144.796 130.895 144.675 130.841 144.596 130.732C144.516 130.623 144.477 130.502 144.478 130.368C144.48 130.236 144.521 130.115 144.604 130.006C144.685 129.898 144.807 129.844 144.969 129.845C145.131 129.847 145.253 129.733 145.337 129.504C145.42 129.277 145.479 129 145.513 128.675C145.546 128.351 145.565 128.008 145.569 127.647C145.573 127.286 145.577 126.974 145.58 126.708C145.643 120.968 145.705 115.227 145.768 109.486C145.774 108.957 145.744 108.442 145.679 107.94C145.613 107.438 145.46 107.172 145.217 107.143C145.055 107.124 144.934 107.056 144.855 106.938C144.775 106.819 144.736 106.694 144.738 106.56C144.739 106.428 144.781 106.311 144.863 106.212C144.945 106.113 145.067 106.073 145.229 106.093C149.079 106.567 152.915 107.119 156.73 107.75C156.95 107.787 157.099 107.874 157.178 108.011Z" fill="#E6322A"/>
<path d="M164.123 118.359C165.017 118.861 165.835 119.341 166.575 119.802C167.314 120.262 167.947 120.756 168.473 121.283C168.998 121.81 169.403 122.389 169.686 123.021C169.968 123.655 170.11 124.395 170.11 125.25C170.11 125.947 169.993 126.626 169.757 127.296C169.521 127.966 169.157 128.567 168.665 129.103C168.173 129.639 167.542 130.075 166.773 130.411C166.004 130.746 165.087 130.919 164.023 130.919C163.333 130.919 162.64 130.824 161.942 130.629C161.244 130.434 160.606 130.144 160.028 129.757C159.451 129.37 158.982 128.886 158.623 128.305C158.264 127.724 158.088 127.043 158.095 126.267C158.101 125.625 158.209 125.092 158.419 124.671C158.629 124.25 158.887 123.927 159.193 123.702C159.499 123.478 159.834 123.351 160.197 123.318C160.561 123.286 160.899 123.334 161.212 123.461C161.524 123.589 161.773 123.814 161.958 124.136C162.141 124.458 162.242 124.801 162.26 125.166C162.276 125.531 162.196 125.891 162.016 126.249C161.837 126.608 161.53 126.887 161.097 127.09C160.642 127.314 160.38 127.617 160.308 127.996C160.236 128.376 160.332 128.748 160.594 129.11C160.857 129.473 161.278 129.786 161.857 130.048C162.436 130.311 163.159 130.441 164.026 130.445C164.833 130.448 165.489 130.283 165.992 129.956C166.495 129.63 166.861 129.208 167.088 128.69C167.316 128.171 167.411 127.593 167.373 126.947C167.336 126.301 167.186 125.661 166.923 125.018C166.661 124.377 166.286 123.76 165.8 123.163C165.313 122.567 164.728 122.071 164.045 121.676C163.245 121.21 162.495 120.734 161.794 120.252C161.092 119.77 160.48 119.23 159.956 118.632C159.432 118.035 159.021 117.366 158.724 116.627C158.427 115.888 158.283 115.028 158.291 114.054C158.3 113.125 158.444 112.285 158.724 111.542C159.004 110.8 159.395 110.178 159.896 109.682C160.398 109.186 160.994 108.841 161.686 108.646C162.378 108.451 163.15 108.442 164.002 108.612C164.913 108.794 165.729 109.11 166.452 109.547C167.176 109.986 167.787 110.485 168.288 111.042C168.789 111.6 169.174 112.194 169.444 112.826C169.714 113.459 169.849 114.061 169.849 114.639C169.849 115.218 169.771 115.684 169.616 116.04C169.461 116.395 169.262 116.666 169.019 116.853C168.776 117.039 168.509 117.148 168.217 117.179C167.926 117.21 167.654 117.178 167.402 117.082C167.11 116.961 166.838 116.755 166.587 116.461C166.335 116.169 166.166 115.844 166.08 115.49C165.994 115.135 166.01 114.774 166.128 114.409C166.246 114.044 166.519 113.731 166.947 113.474C167.315 113.249 167.549 112.933 167.647 112.522C167.744 112.111 167.682 111.687 167.462 111.246C167.241 110.803 166.845 110.381 166.276 109.977C165.707 109.574 164.949 109.273 164 109.087C163.205 108.932 162.549 108.993 162.032 109.275C161.514 109.557 161.137 109.974 160.899 110.52C160.66 111.067 160.548 111.709 160.562 112.44C160.575 113.172 160.721 113.912 160.999 114.653C161.276 115.395 161.676 116.1 162.199 116.763C162.722 117.427 163.363 117.958 164.123 118.359Z" fill="#E6322A"/>
</svg>
